<svg width="223" height="36" viewBox="0 0 223 36" fill="none" xmlns="http://www.w3.org/2000/svg">
<path d="M17.6873 19.3336L20.4618 20.8943H20.693L20.6352 21.0099L29.9992 26.4434V9.10254L17.6873 16.2123V19.3336Z" fill="#D6001C"/>
<path d="M9.53745 20.8943L12.312 19.3336V16.2123L0 9.10254V26.4434L9.36405 21.0099V20.8943H9.53745Z" fill="#76232F"/>
<path d="M15.0288 0.43335L29.9997 9.10376V0.43335H15.0288Z" fill="#D6001C"/>
<path d="M0 0.43335V9.10376L15.0287 0.43335H0Z" fill="#76232F"/>
<path d="M21.1562 23.3226V24.3631H20.636C20.1158 24.7099 19.7689 25.2301 19.7111 25.8659H19.1909L19.2487 27.022L19.5377 32.3976L30 26.3862L20.636 21.0105L20.1158 23.3226H21.1562Z" fill="#76232F"/>
<path d="M20.4618 20.8949L17.6873 19.3342V20.8949H20.4618Z" fill="#76232F"/>
<path d="M9.88427 23.3226L9.36404 21.0105L0 26.444L10.4623 32.4554L10.8091 25.8659H10.2889C10.2311 25.2301 9.88427 24.7099 9.36404 24.3631H8.84382V23.3226H9.88427Z" fill="#D6001C"/>
<path d="M12.3119 19.3342L9.53735 20.8949H12.3119V19.3342Z" fill="#D6001C"/>
<path d="M15.3758 11.0687C15.4336 11.0687 15.4914 11.0687 15.5493 11.0687C15.8383 10.7797 15.8383 10.2595 15.5493 9.97047C15.3758 9.79706 15.2024 9.73926 14.9712 9.73926C14.9134 9.73926 14.8556 9.73926 14.7978 9.73926C14.5088 10.0283 14.5088 10.5485 14.7978 10.8375C14.9134 11.0109 15.1446 11.1265 15.3758 11.0687Z" fill="white"/>
<path d="M16.2422 26.1547C14.0457 26.1547 13.4677 27.4842 13.4677 27.4842L13.3521 27.7732L13.1208 34.0159L15.0283 35.1141L19.5948 32.513L19.3057 27.1373C19.2479 27.0217 18.7277 26.0969 16.2422 26.1547Z" fill="white"/>
<path d="M8.84351 23.323V24.3634H9.36373C9.88395 24.7103 10.2308 25.2305 10.2886 25.8663H10.8088L10.462 32.4558L13.1209 33.9587L13.3521 27.716L13.4677 27.427C13.4677 27.427 14.0458 26.0975 16.1845 26.0975C18.67 26.0397 19.1902 26.9646 19.248 27.0224L19.1902 25.8663H19.7104C19.7682 25.2305 20.115 24.7103 20.6353 24.3634H21.2133V23.323H8.84351Z" fill="#B3B3B3"/>
<path d="M15.5492 30.5476C15.607 30.2586 15.3758 30.0274 15.0868 29.9696C14.7978 29.9118 14.5666 30.143 14.5088 30.432C14.5088 30.4898 14.5088 30.4898 14.5088 30.5476V31.8771H15.5492V30.5476Z" fill="#B3B3B3"/>
<path d="M13.0054 15.2883V16.0398L15.0285 17.1958L16.9938 16.0398V15.2883H13.0054Z" fill="#76232F"/>
<path d="M15.0285 18.3516L13.0054 19.5076V20.2591H16.9938V19.5076L15.0285 18.3516Z" fill="#76232F"/>
<path d="M17.6874 14.6523H17.9186C18.0921 14.6523 18.2077 14.7679 18.2077 14.9413C18.2077 15.1147 18.0921 15.2881 17.9186 15.2881H17.6874V16.213L29.9994 9.10322L14.9707 0.375V9.68125C15.3753 9.68125 15.7221 10.0281 15.7221 10.4327C15.7221 10.6639 15.6643 10.8373 15.4909 10.9529C15.3753 11.0685 15.3175 11.2419 15.3175 11.3575C15.3175 11.5309 15.4331 11.7621 15.5487 11.8778C16.8782 12.2824 17.7452 13.3806 17.6874 14.6523Z" fill="#76232F"/>
<path d="M15.0285 20.26H13.0632V19.5085L15.0285 18.3525V17.1386L13.0632 15.9826V15.2311H13.9302C13.8724 15.2311 13.8146 15.0577 13.8146 14.8843C13.8146 14.7109 13.8724 14.5375 13.9302 14.5375H13.988C13.988 13.0346 14.4504 11.8208 15.0285 11.8208C15.2597 11.8208 15.4331 11.8208 15.6643 11.8786C15.4909 11.763 15.4331 11.5896 15.4331 11.3584C15.4331 11.1849 15.4909 11.0693 15.6065 10.9537C15.5487 10.9537 15.4909 10.9537 15.4331 10.9537C15.0285 10.9537 14.6816 10.6069 14.6238 10.2023C14.6238 9.97108 14.6816 9.79768 14.855 9.62427C14.4504 9.73987 14.2192 10.1445 14.277 10.5491C14.3348 10.6647 14.3926 10.7803 14.4504 10.8959C14.566 11.0115 14.6238 11.1849 14.6238 11.3584C14.6238 11.5318 14.5082 11.763 14.3926 11.8786C13.1788 12.1676 12.3117 13.2658 12.3117 14.5375H12.0805C11.9071 14.5375 11.7915 14.6531 11.7915 14.8265C11.7915 14.9999 11.9071 15.1733 12.0805 15.1733H12.3117V20.7802H15.0285V20.26Z" fill="#B3B3B3"/>
<path d="M15.0284 17.1956V18.4095L16.9937 19.5655V20.3169H15.0284V20.9528H9.36377L9.88399 23.3805H20.1151L20.6353 20.9528H17.6874V15.2881H17.9186C18.092 15.2881 18.2076 15.1147 18.2076 14.9413C18.2076 14.7679 18.0342 14.6523 17.9186 14.6523H17.6874C17.6874 13.1494 16.5313 11.9355 15.0284 11.9355H14.9706C14.4504 11.9355 13.9302 13.1494 13.9302 14.6523H13.8724C13.8146 14.6523 13.7568 14.7679 13.7568 14.9991C13.7568 15.1725 13.8146 15.2881 13.8724 15.3459H16.9937V16.0973L15.0284 17.1956Z" fill="white"/>
<path d="M13.0054 17.0222L14.3348 17.7737L13.0054 18.5251V17.0222Z" fill="#76232F"/>
<path d="M16.9936 17.0222L15.7219 17.7737L16.9936 18.5251V17.0222Z" fill="#D6001C"/>
<path d="M20.5777 9.7968L19.4795 10.8951L19.5373 9.33438L18.0344 9.10316L19.3061 8.23612L18.5546 6.84886L19.9997 7.31128L20.5777 5.86621L21.1558 7.31128L22.6586 6.84886L21.9072 8.23612L23.1789 9.10316L21.6182 9.33438L21.7338 10.8951L20.5777 9.7968Z" fill="white"/>
<path d="M12.1386 15.2887C11.9652 15.2887 11.8496 15.1152 11.8496 14.9418C11.8496 14.7684 11.9652 14.595 12.1386 14.595H12.3698C12.3698 13.3234 13.2368 12.2829 14.4507 11.9939C14.6241 11.8783 14.6819 11.7049 14.6819 11.4737C14.6819 11.3003 14.6241 11.1269 14.5085 11.0113C14.2195 10.7222 14.2195 10.202 14.5085 9.913C14.6241 9.7974 14.7397 9.73959 14.8553 9.73959C14.9131 9.73959 14.9709 9.73959 15.0287 9.73959V0.43335L0 9.10376L12.312 16.2135V15.2887H12.1386Z" fill="#D6001C"/>
<path d="M12.6589 22.8606H13.4104L13.2948 21.4155H12.4277L12.6589 22.8606Z" fill="#B3B3B3"/>
<path d="M13.9305 22.8606H14.971V21.4155H13.8149L13.9305 22.8606Z" fill="#B3B3B3"/>
<path d="M11.387 22.8606H12.1384L11.965 21.4155H11.1558L11.387 22.8606Z" fill="#D6001C"/>
<path d="M10.2882 22.8606H10.8084L10.5194 21.4155H9.88354L10.2882 22.8606Z" fill="#D6001C"/>
<path d="M17.9185 22.8606H18.6699L18.9589 21.4155H18.1497L17.9185 22.8606Z" fill="#76232F"/>
<path d="M19.1909 22.8606H19.7111L20.0002 21.4155H19.4221L19.1909 22.8606Z" fill="#76232F"/>
<path d="M48.8743 7.149H44.4413V8.969H47.9773V10.698H44.4413V14H42.2053V5.42H48.8743V7.149ZM53.0523 9.879C53.0523 9.57567 52.9657 9.33733 52.7923 9.164C52.6277 8.982 52.4023 8.891 52.1163 8.891C51.8303 8.891 51.5833 8.96467 51.3753 9.112C51.176 9.25067 51.0373 9.502 50.9593 9.866L49.0873 9.424C49.2087 8.8 49.5293 8.30167 50.0493 7.929C50.5693 7.55633 51.3017 7.37 52.2463 7.37C52.879 7.37 53.4163 7.46533 53.8583 7.656C54.309 7.838 54.6513 8.11533 54.8853 8.488C55.128 8.852 55.2493 9.30267 55.2493 9.84V12.219C55.2493 12.557 55.401 12.726 55.7043 12.726C55.8603 12.726 55.986 12.7087 56.0813 12.674L55.9513 13.935C55.6913 14.0563 55.375 14.117 55.0023 14.117C54.6643 14.117 54.3653 14.065 54.1053 13.961C53.8453 13.8483 53.6417 13.6837 53.4943 13.467C53.347 13.2417 53.2733 12.96 53.2733 12.622V12.544L53.5203 12.453C53.5203 12.8257 53.4077 13.1377 53.1823 13.389C52.9657 13.6403 52.6797 13.8267 52.3243 13.948C51.9777 14.0693 51.6137 14.13 51.2323 14.13C50.7903 14.13 50.4047 14.0607 50.0753 13.922C49.746 13.7833 49.4903 13.584 49.3083 13.324C49.135 13.0553 49.0483 12.726 49.0483 12.336C49.0483 11.868 49.187 11.4823 49.4643 11.179C49.7503 10.867 50.1967 10.6503 50.8033 10.529L53.2603 10.022L53.2473 11.192L51.9993 11.452C51.7393 11.504 51.5443 11.582 51.4143 11.686C51.293 11.7813 51.2323 11.9287 51.2323 12.128C51.2323 12.3187 51.3017 12.4617 51.4403 12.557C51.579 12.6523 51.7437 12.7 51.9343 12.7C52.0817 12.7 52.2203 12.6783 52.3503 12.635C52.489 12.5917 52.6103 12.5267 52.7143 12.44C52.8183 12.3447 52.9007 12.2277 52.9613 12.089C53.022 11.9503 53.0523 11.7857 53.0523 11.595V9.879ZM59.9839 7.37C60.6425 7.37 61.1885 7.46533 61.6219 7.656C62.0639 7.838 62.4062 8.085 62.6489 8.397C62.9002 8.70033 63.0562 9.02967 63.1169 9.385L61.0759 10.061C61.0152 9.68833 60.9025 9.411 60.7379 9.229C60.5819 9.03833 60.3522 8.943 60.0489 8.943C59.7715 8.943 59.5375 9.008 59.3469 9.138C59.1649 9.25933 59.0262 9.45867 58.9309 9.736C58.8355 10.0047 58.7879 10.3513 58.7879 10.776C58.7879 11.2007 58.8399 11.5473 58.9439 11.816C59.0479 12.076 59.1952 12.2667 59.3859 12.388C59.5765 12.5007 59.8019 12.557 60.0619 12.557C60.2785 12.557 60.4562 12.518 60.5949 12.44C60.7422 12.3533 60.8635 12.232 60.9589 12.076C61.0542 11.92 61.1149 11.7293 61.1409 11.504L63.1299 12.141C63.0692 12.5223 62.9045 12.8647 62.6359 13.168C62.3759 13.4627 62.0292 13.6967 61.5959 13.87C61.1625 14.0433 60.6555 14.13 60.0749 14.13C59.3642 14.13 58.7445 14 58.2159 13.74C57.6872 13.4713 57.2799 13.0857 56.9939 12.583C56.7079 12.0717 56.5649 11.4607 56.5649 10.75C56.5649 10.0393 56.7079 9.43267 56.9939 8.93C57.2799 8.41867 57.6785 8.033 58.1899 7.773C58.7099 7.50433 59.3079 7.37 59.9839 7.37ZM66.4758 14.13C66.0338 14.13 65.6438 14.0563 65.3058 13.909C64.9765 13.753 64.7165 13.506 64.5258 13.168C64.3352 12.83 64.2398 12.388 64.2398 11.842V7.5H66.4498V11.322C66.4498 11.738 66.5322 12.0283 66.6968 12.193C66.8615 12.3577 67.0955 12.44 67.3988 12.44C67.5548 12.44 67.7022 12.414 67.8408 12.362C67.9795 12.3013 68.1008 12.2147 68.2048 12.102C68.3088 11.9807 68.3868 11.829 68.4388 11.647C68.4995 11.4563 68.5298 11.2353 68.5298 10.984V7.5H70.7398V14H68.7638L68.6988 12.778C68.4908 13.2373 68.2005 13.5797 67.8278 13.805C67.4552 14.0217 67.0045 14.13 66.4758 14.13ZM74.5117 4.744V11.79C74.5117 12.076 74.5593 12.2797 74.6547 12.401C74.75 12.5223 74.9103 12.583 75.1357 12.583C75.2657 12.583 75.374 12.5743 75.4607 12.557C75.5473 12.5397 75.6513 12.5137 75.7727 12.479L75.6297 13.805C75.4737 13.9003 75.27 13.9783 75.0187 14.039C74.7673 14.0997 74.5203 14.13 74.2777 14.13C73.5843 14.13 73.0817 13.9697 72.7697 13.649C72.4577 13.3283 72.3017 12.804 72.3017 12.076V4.744H74.5117ZM79.0818 5.433V11.686C79.0818 11.998 79.1554 12.2233 79.3028 12.362C79.4588 12.492 79.6711 12.557 79.9398 12.557C80.1478 12.557 80.3254 12.5353 80.4728 12.492C80.6288 12.44 80.7674 12.3663 80.8888 12.271L81.1228 13.636C80.9061 13.792 80.6331 13.9133 80.3038 14C79.9744 14.0867 79.6364 14.13 79.2898 14.13C78.7958 14.13 78.3668 14.0607 78.0028 13.922C77.6474 13.7833 77.3701 13.5623 77.1708 13.259C76.9801 12.9557 76.8804 12.5527 76.8718 12.05V6.044L79.0818 5.433ZM81.0188 7.5V9.073H75.7538V7.5H81.0188ZM88.5786 7.5L86.2126 14C85.9699 14.6847 85.7056 15.2307 85.4196 15.638C85.1336 16.0453 84.7956 16.34 84.4056 16.522C84.0156 16.704 83.5476 16.795 83.0016 16.795C82.6376 16.795 82.3039 16.756 82.0006 16.678C81.6972 16.6 81.4329 16.4917 81.2076 16.353L81.6496 14.858C81.8056 14.9707 81.9702 15.0487 82.1436 15.092C82.3169 15.144 82.5379 15.17 82.8066 15.17C83.0579 15.17 83.2616 15.1267 83.4176 15.04C83.5822 14.9533 83.7122 14.7887 83.8076 14.546L83.9766 14.143L83.2226 12.375L81.2726 7.5H83.7036L84.7046 11.205L85.0166 12.583L85.3806 11.153L86.3816 7.5H88.5786ZM95.8865 7.37C96.5712 7.37 97.1692 7.50433 97.6805 7.773C98.2005 8.033 98.6035 8.41867 98.8895 8.93C99.1842 9.43267 99.3315 10.0393 99.3315 10.75C99.3315 11.4607 99.1842 12.0717 98.8895 12.583C98.6035 13.0857 98.2005 13.4713 97.6805 13.74C97.1692 14 96.5712 14.13 95.8865 14.13C95.2192 14.13 94.6255 14 94.1055 13.74C93.5855 13.4713 93.1782 13.0857 92.8835 12.583C92.5975 12.0717 92.4545 11.4607 92.4545 10.75C92.4545 10.0393 92.5975 9.43267 92.8835 8.93C93.1782 8.41867 93.5855 8.033 94.1055 7.773C94.6255 7.50433 95.2192 7.37 95.8865 7.37ZM95.8865 8.943C95.6352 8.943 95.4185 9.00367 95.2365 9.125C95.0545 9.24633 94.9158 9.44133 94.8205 9.71C94.7252 9.97867 94.6775 10.3253 94.6775 10.75C94.6775 11.1747 94.7252 11.5213 94.8205 11.79C94.9158 12.05 95.0545 12.245 95.2365 12.375C95.4185 12.4963 95.6352 12.557 95.8865 12.557C96.1465 12.557 96.3675 12.4963 96.5495 12.375C96.7315 12.245 96.8702 12.05 96.9655 11.79C97.0608 11.5213 97.1085 11.1747 97.1085 10.75C97.1085 10.3253 97.0608 9.97867 96.9655 9.71C96.8702 9.44133 96.7315 9.24633 96.5495 9.125C96.3675 9.00367 96.1465 8.943 95.8865 8.943ZM103.566 4.562C103.921 4.562 104.233 4.601 104.502 4.679C104.77 4.74833 104.97 4.83067 105.1 4.926L104.879 6.304C104.783 6.24333 104.675 6.19567 104.554 6.161C104.432 6.12633 104.281 6.109 104.099 6.109C103.795 6.109 103.544 6.17833 103.345 6.317C103.154 6.45567 103.059 6.69833 103.059 7.045V7.89L103.189 8.254V14H100.979V6.902C100.979 6.486 101.044 6.13067 101.174 5.836C101.312 5.54133 101.503 5.29867 101.746 5.108C101.988 4.91733 102.266 4.77867 102.578 4.692C102.89 4.60533 103.219 4.562 103.566 4.562ZM105.035 7.5V9.073H99.9387V7.5H105.035ZM119.537 5.42V14H117.561V10.061L117.626 7.422H117.6L115.481 14H113.674L111.555 7.422H111.529L111.594 10.061V14H109.605V5.42H112.79L114.142 9.788L114.623 11.608H114.649L115.143 9.801L116.482 5.42H119.537ZM124.415 14.13C123.695 14.13 123.071 13.9957 122.543 13.727C122.023 13.4583 121.62 13.0727 121.334 12.57C121.048 12.0673 120.905 11.4607 120.905 10.75C120.905 10.0393 121.048 9.43267 121.334 8.93C121.62 8.42733 122.018 8.04167 122.53 7.773C123.05 7.50433 123.643 7.37 124.311 7.37C124.995 7.37 125.576 7.50433 126.053 7.773C126.538 8.033 126.906 8.397 127.158 8.865C127.409 9.32433 127.535 9.853 127.535 10.451C127.535 10.607 127.53 10.763 127.522 10.919C127.513 11.075 127.5 11.205 127.483 11.309H122.335V10.126H126.508L125.455 10.529C125.455 10.009 125.359 9.61033 125.169 9.333C124.987 9.05567 124.701 8.917 124.311 8.917C124.033 8.917 123.795 8.982 123.596 9.112C123.405 9.242 123.258 9.44567 123.154 9.723C123.058 10.0003 123.011 10.3557 123.011 10.789C123.011 11.2137 123.067 11.5603 123.18 11.829C123.292 12.089 123.453 12.2797 123.661 12.401C123.869 12.5137 124.12 12.57 124.415 12.57C124.744 12.57 125.004 12.505 125.195 12.375C125.394 12.245 125.541 12.063 125.637 11.829L127.405 12.414C127.283 12.7867 127.071 13.103 126.768 13.363C126.473 13.6143 126.118 13.805 125.702 13.935C125.294 14.065 124.865 14.13 124.415 14.13ZM131.163 14.13C130.626 14.13 130.153 14 129.746 13.74C129.347 13.4713 129.035 13.0857 128.81 12.583C128.593 12.0803 128.485 11.478 128.485 10.776C128.485 10.048 128.598 9.43267 128.823 8.93C129.057 8.42733 129.378 8.04167 129.785 7.773C130.201 7.50433 130.678 7.37 131.215 7.37C131.804 7.37 132.277 7.552 132.632 7.916C132.996 8.27133 133.23 8.72633 133.334 9.281L133.126 9.554V4.744H135.336V14H133.36L133.217 11.79L133.477 11.985C133.425 12.4183 133.291 12.7953 133.074 13.116C132.866 13.4367 132.597 13.688 132.268 13.87C131.947 14.0433 131.579 14.13 131.163 14.13ZM131.93 12.505C132.181 12.505 132.394 12.44 132.567 12.31C132.749 12.1713 132.888 11.9677 132.983 11.699C133.078 11.4303 133.126 11.101 133.126 10.711C133.126 10.347 133.078 10.0393 132.983 9.788C132.896 9.528 132.762 9.333 132.58 9.203C132.407 9.06433 132.194 8.995 131.943 8.995C131.562 8.995 131.258 9.138 131.033 9.424C130.816 9.70133 130.708 10.1433 130.708 10.75C130.708 11.3567 130.816 11.803 131.033 12.089C131.25 12.3663 131.549 12.505 131.93 12.505ZM138.026 6.746C137.576 6.746 137.246 6.66367 137.038 6.499C136.839 6.32567 136.739 6.057 136.739 5.693C136.739 5.32033 136.839 5.05167 137.038 4.887C137.246 4.71367 137.576 4.627 138.026 4.627C138.468 4.627 138.793 4.71367 139.001 4.887C139.209 5.05167 139.313 5.32033 139.313 5.693C139.313 6.057 139.209 6.32567 139.001 6.499C138.793 6.66367 138.468 6.746 138.026 6.746ZM139.131 7.5V14H136.921V7.5H139.131ZM143.786 7.37C144.444 7.37 144.99 7.46533 145.424 7.656C145.866 7.838 146.208 8.085 146.451 8.397C146.702 8.70033 146.858 9.02967 146.919 9.385L144.878 10.061C144.817 9.68833 144.704 9.411 144.54 9.229C144.384 9.03833 144.154 8.943 143.851 8.943C143.573 8.943 143.339 9.008 143.149 9.138C142.967 9.25933 142.828 9.45867 142.733 9.736C142.637 10.0047 142.59 10.3513 142.59 10.776C142.59 11.2007 142.642 11.5473 142.746 11.816C142.85 12.076 142.997 12.2667 143.188 12.388C143.378 12.5007 143.604 12.557 143.864 12.557C144.08 12.557 144.258 12.518 144.397 12.44C144.544 12.3533 144.665 12.232 144.761 12.076C144.856 11.92 144.917 11.7293 144.943 11.504L146.932 12.141C146.871 12.5223 146.706 12.8647 146.438 13.168C146.178 13.4627 145.831 13.6967 145.398 13.87C144.964 14.0433 144.457 14.13 143.877 14.13C143.166 14.13 142.546 14 142.018 13.74C141.489 13.4713 141.082 13.0857 140.796 12.583C140.51 12.0717 140.367 11.4607 140.367 10.75C140.367 10.0393 140.51 9.43267 140.796 8.93C141.082 8.41867 141.48 8.033 141.992 7.773C142.512 7.50433 143.11 7.37 143.786 7.37ZM149.186 6.746C148.735 6.746 148.406 6.66367 148.198 6.499C147.998 6.32567 147.899 6.057 147.899 5.693C147.899 5.32033 147.998 5.05167 148.198 4.887C148.406 4.71367 148.735 4.627 149.186 4.627C149.628 4.627 149.953 4.71367 150.161 4.887C150.369 5.05167 150.473 5.32033 150.473 5.693C150.473 6.057 150.369 6.32567 150.161 6.499C149.953 6.66367 149.628 6.746 149.186 6.746ZM150.291 7.5V14H148.081V7.5H150.291ZM151.864 14V7.5H153.84L153.957 9.736L153.71 9.489C153.796 9.021 153.948 8.631 154.165 8.319C154.39 8.007 154.667 7.773 154.997 7.617C155.335 7.45233 155.712 7.37 156.128 7.37C156.578 7.37 156.968 7.45667 157.298 7.63C157.636 7.80333 157.9 8.059 158.091 8.397C158.281 8.735 158.377 9.15967 158.377 9.671V14H156.167V10.256C156.167 9.80533 156.08 9.49333 155.907 9.32C155.733 9.14667 155.512 9.06 155.244 9.06C155.036 9.06 154.841 9.112 154.659 9.216C154.477 9.31133 154.334 9.46733 154.23 9.684C154.126 9.90067 154.074 10.191 154.074 10.555V14H151.864ZM163.097 14.13C162.378 14.13 161.754 13.9957 161.225 13.727C160.705 13.4583 160.302 13.0727 160.016 12.57C159.73 12.0673 159.587 11.4607 159.587 10.75C159.587 10.0393 159.73 9.43267 160.016 8.93C160.302 8.42733 160.701 8.04167 161.212 7.773C161.732 7.50433 162.326 7.37 162.993 7.37C163.678 7.37 164.259 7.50433 164.735 7.773C165.221 8.033 165.589 8.397 165.84 8.865C166.092 9.32433 166.217 9.853 166.217 10.451C166.217 10.607 166.213 10.763 166.204 10.919C166.196 11.075 166.183 11.205 166.165 11.309H161.017V10.126H165.19L164.137 10.529C164.137 10.009 164.042 9.61033 163.851 9.333C163.669 9.05567 163.383 8.917 162.993 8.917C162.716 8.917 162.478 8.982 162.278 9.112C162.088 9.242 161.94 9.44567 161.836 9.723C161.741 10.0003 161.693 10.3557 161.693 10.789C161.693 11.2137 161.75 11.5603 161.862 11.829C161.975 12.089 162.135 12.2797 162.343 12.401C162.551 12.5137 162.803 12.57 163.097 12.57C163.427 12.57 163.687 12.505 163.877 12.375C164.077 12.245 164.224 12.063 164.319 11.829L166.087 12.414C165.966 12.7867 165.754 13.103 165.45 13.363C165.156 13.6143 164.8 13.805 164.384 13.935C163.977 14.065 163.548 14.13 163.097 14.13ZM168.507 11.764C168.827 11.764 169.092 11.8377 169.3 11.985C169.508 12.1323 169.659 12.3273 169.755 12.57C169.859 12.804 169.911 13.0683 169.911 13.363C169.911 13.753 169.824 14.1257 169.651 14.481C169.486 14.845 169.265 15.1613 168.988 15.43C168.719 15.7073 168.424 15.9153 168.104 16.054L167.207 15.391C167.449 15.2957 167.67 15.1743 167.87 15.027C168.078 14.8797 168.255 14.7193 168.403 14.546C168.559 14.3727 168.676 14.195 168.754 14.013L168.689 13.974C168.645 14.0087 168.589 14.0347 168.52 14.052C168.45 14.0693 168.359 14.078 168.247 14.078C168.091 14.078 167.93 14.039 167.766 13.961C167.61 13.883 167.475 13.766 167.363 13.61C167.259 13.454 167.207 13.2547 167.207 13.012C167.207 12.7347 167.267 12.505 167.389 12.323C167.51 12.141 167.67 12.0023 167.87 11.907C168.069 11.8117 168.281 11.764 168.507 11.764ZM182.848 5.42V14H180.612V5.42H182.848ZM177.336 5.42V14H175.1V5.42H177.336ZM181.808 8.813V10.542H176.192V8.813H181.808ZM187.726 14.13C187.007 14.13 186.383 13.9957 185.854 13.727C185.334 13.4583 184.931 13.0727 184.645 12.57C184.359 12.0673 184.216 11.4607 184.216 10.75C184.216 10.0393 184.359 9.43267 184.645 8.93C184.931 8.42733 185.33 8.04167 185.841 7.773C186.361 7.50433 186.955 7.37 187.622 7.37C188.307 7.37 188.888 7.50433 189.364 7.773C189.85 8.033 190.218 8.397 190.469 8.865C190.721 9.32433 190.846 9.853 190.846 10.451C190.846 10.607 190.842 10.763 190.833 10.919C190.825 11.075 190.812 11.205 190.794 11.309H185.646V10.126H189.819L188.766 10.529C188.766 10.009 188.671 9.61033 188.48 9.333C188.298 9.05567 188.012 8.917 187.622 8.917C187.345 8.917 187.107 8.982 186.907 9.112C186.717 9.242 186.569 9.44567 186.465 9.723C186.37 10.0003 186.322 10.3557 186.322 10.789C186.322 11.2137 186.379 11.5603 186.491 11.829C186.604 12.089 186.764 12.2797 186.972 12.401C187.18 12.5137 187.432 12.57 187.726 12.57C188.056 12.57 188.316 12.505 188.506 12.375C188.706 12.245 188.853 12.063 188.948 11.829L190.716 12.414C190.595 12.7867 190.383 13.103 190.079 13.363C189.785 13.6143 189.429 13.805 189.013 13.935C188.606 14.065 188.177 14.13 187.726 14.13ZM195.71 9.879C195.71 9.57567 195.623 9.33733 195.45 9.164C195.285 8.982 195.06 8.891 194.774 8.891C194.488 8.891 194.241 8.96467 194.033 9.112C193.833 9.25067 193.695 9.502 193.617 9.866L191.745 9.424C191.866 8.8 192.187 8.30167 192.707 7.929C193.227 7.55633 193.959 7.37 194.904 7.37C195.536 7.37 196.074 7.46533 196.516 7.656C196.966 7.838 197.309 8.11533 197.543 8.488C197.785 8.852 197.907 9.30267 197.907 9.84V12.219C197.907 12.557 198.058 12.726 198.362 12.726C198.518 12.726 198.643 12.7087 198.739 12.674L198.609 13.935C198.349 14.0563 198.032 14.117 197.66 14.117C197.322 14.117 197.023 14.065 196.763 13.961C196.503 13.8483 196.299 13.6837 196.152 13.467C196.004 13.2417 195.931 12.96 195.931 12.622V12.544L196.178 12.453C196.178 12.8257 196.065 13.1377 195.84 13.389C195.623 13.6403 195.337 13.8267 194.982 13.948C194.635 14.0693 194.271 14.13 193.89 14.13C193.448 14.13 193.062 14.0607 192.733 13.922C192.403 13.7833 192.148 13.584 191.966 13.324C191.792 13.0553 191.706 12.726 191.706 12.336C191.706 11.868 191.844 11.4823 192.122 11.179C192.408 10.867 192.854 10.6503 193.461 10.529L195.918 10.022L195.905 11.192L194.657 11.452C194.397 11.504 194.202 11.582 194.072 11.686C193.95 11.7813 193.89 11.9287 193.89 12.128C193.89 12.3187 193.959 12.4617 194.098 12.557C194.236 12.6523 194.401 12.7 194.592 12.7C194.739 12.7 194.878 12.6783 195.008 12.635C195.146 12.5917 195.268 12.5267 195.372 12.44C195.476 12.3447 195.558 12.2277 195.619 12.089C195.679 11.9503 195.71 11.7857 195.71 11.595V9.879ZM201.795 4.744V11.79C201.795 12.076 201.843 12.2797 201.938 12.401C202.033 12.5223 202.194 12.583 202.419 12.583C202.549 12.583 202.657 12.5743 202.744 12.557C202.831 12.5397 202.935 12.5137 203.056 12.479L202.913 13.805C202.757 13.9003 202.553 13.9783 202.302 14.039C202.051 14.0997 201.804 14.13 201.561 14.13C200.868 14.13 200.365 13.9697 200.053 13.649C199.741 13.3283 199.585 12.804 199.585 12.076V4.744H201.795ZM206.365 5.433V11.686C206.365 11.998 206.439 12.2233 206.586 12.362C206.742 12.492 206.954 12.557 207.223 12.557C207.431 12.557 207.609 12.5353 207.756 12.492C207.912 12.44 208.051 12.3663 208.172 12.271L208.406 13.636C208.189 13.792 207.916 13.9133 207.587 14C207.258 14.0867 206.92 14.13 206.573 14.13C206.079 14.13 205.65 14.0607 205.286 13.922C204.931 13.7833 204.653 13.5623 204.454 13.259C204.263 12.9557 204.164 12.5527 204.155 12.05V6.044L206.365 5.433ZM208.302 7.5V9.073H203.037V7.5H208.302ZM209.475 14V4.744H211.685V8.683C211.876 8.24967 212.149 7.92467 212.504 7.708C212.859 7.48267 213.271 7.37 213.739 7.37C214.19 7.37 214.58 7.45667 214.909 7.63C215.247 7.80333 215.511 8.059 215.702 8.397C215.893 8.735 215.988 9.15967 215.988 9.671V14H213.778V10.282C213.778 9.814 213.691 9.49333 213.518 9.32C213.353 9.138 213.132 9.047 212.855 9.047C212.647 9.047 212.452 9.099 212.27 9.203C212.088 9.307 211.945 9.47167 211.841 9.697C211.737 9.92233 211.685 10.217 211.685 10.581V14H209.475ZM66.6046 24.879C66.6046 24.5757 66.5179 24.3373 66.3446 24.164C66.1799 23.982 65.9546 23.891 65.6686 23.891C65.3826 23.891 65.1356 23.9647 64.9276 24.112C64.7282 24.2507 64.5896 24.502 64.5116 24.866L62.6396 24.424C62.7609 23.8 63.0816 23.3017 63.6016 22.929C64.1216 22.5563 64.8539 22.37 65.7986 22.37C66.4312 22.37 66.9686 22.4653 67.4106 22.656C67.8612 22.838 68.2036 23.1153 68.4376 23.488C68.6802 23.852 68.8016 24.3027 68.8016 24.84V27.219C68.8016 27.557 68.9532 27.726 69.2566 27.726C69.4126 27.726 69.5382 27.7087 69.6336 27.674L69.5036 28.935C69.2436 29.0563 68.9272 29.117 68.5546 29.117C68.2166 29.117 67.9176 29.065 67.6576 28.961C67.3976 28.8483 67.1939 28.6837 67.0466 28.467C66.8992 28.2417 66.8256 27.96 66.8256 27.622V27.544L67.0726 27.453C67.0726 27.8257 66.9599 28.1377 66.7346 28.389C66.5179 28.6403 66.2319 28.8267 65.8766 28.948C65.5299 29.0693 65.1659 29.13 64.7846 29.13C64.3426 29.13 63.9569 29.0607 63.6276 28.922C63.2982 28.7833 63.0426 28.584 62.8606 28.324C62.6872 28.0553 62.6006 27.726 62.6006 27.336C62.6006 26.868 62.7392 26.4823 63.0166 26.179C63.3026 25.867 63.7489 25.6503 64.3556 25.529L66.8126 25.022L66.7996 26.192L65.5516 26.452C65.2916 26.504 65.0966 26.582 64.9666 26.686C64.8452 26.7813 64.7846 26.9287 64.7846 27.128C64.7846 27.3187 64.8539 27.4617 64.9926 27.557C65.1312 27.6523 65.2959 27.7 65.4866 27.7C65.6339 27.7 65.7726 27.6783 65.9026 27.635C66.0412 27.5917 66.1626 27.5267 66.2666 27.44C66.3706 27.3447 66.4529 27.2277 66.5136 27.089C66.5742 26.9503 66.6046 26.7857 66.6046 26.595V24.879ZM70.5059 29V22.5H72.4819L72.5989 24.736L72.3519 24.489C72.4386 24.021 72.5902 23.631 72.8069 23.319C73.0322 23.007 73.3096 22.773 73.6389 22.617C73.9769 22.4523 74.3539 22.37 74.7699 22.37C75.2206 22.37 75.6106 22.4567 75.9399 22.63C76.2779 22.8033 76.5422 23.059 76.7329 23.397C76.9236 23.735 77.0189 24.1597 77.0189 24.671V29H74.8089V25.256C74.8089 24.8053 74.7222 24.4933 74.5489 24.32C74.3756 24.1467 74.1546 24.06 73.8859 24.06C73.6779 24.06 73.4829 24.112 73.3009 24.216C73.1189 24.3113 72.9759 24.4673 72.8719 24.684C72.7679 24.9007 72.7159 25.191 72.7159 25.555V29H70.5059ZM80.9594 29.13C80.4221 29.13 79.9497 29 79.5424 28.74C79.1437 28.4713 78.8317 28.0857 78.6064 27.583C78.3897 27.0803 78.2814 26.478 78.2814 25.776C78.2814 25.048 78.3941 24.4327 78.6194 23.93C78.8534 23.4273 79.1741 23.0417 79.5814 22.773C79.9974 22.5043 80.4741 22.37 81.0114 22.37C81.6007 22.37 82.0731 22.552 82.4284 22.916C82.7924 23.2713 83.0264 23.7263 83.1304 24.281L82.9224 24.554V19.744H85.1324V29H83.1564L83.0134 26.79L83.2734 26.985C83.2214 27.4183 83.0871 27.7953 82.8704 28.116C82.6624 28.4367 82.3937 28.688 82.0644 28.87C81.7437 29.0433 81.3754 29.13 80.9594 29.13ZM81.7264 27.505C81.9777 27.505 82.1901 27.44 82.3634 27.31C82.5454 27.1713 82.6841 26.9677 82.7794 26.699C82.8747 26.4303 82.9224 26.101 82.9224 25.711C82.9224 25.347 82.8747 25.0393 82.7794 24.788C82.6927 24.528 82.5584 24.333 82.3764 24.203C82.2031 24.0643 81.9907 23.995 81.7394 23.995C81.3581 23.995 81.0547 24.138 80.8294 24.424C80.6127 24.7013 80.5044 25.1433 80.5044 25.75C80.5044 26.3567 80.6127 26.803 80.8294 27.089C81.0461 27.3663 81.3451 27.505 81.7264 27.505ZM98.3415 20.42V29H96.1055V20.42H98.3415ZM92.8295 20.42V29H90.5935V20.42H92.8295ZM97.3015 23.813V25.542H91.6855V23.813H97.3015ZM102.245 29.13C101.803 29.13 101.413 29.0563 101.075 28.909C100.746 28.753 100.486 28.506 100.295 28.168C100.104 27.83 100.009 27.388 100.009 26.842V22.5H102.219V26.322C102.219 26.738 102.301 27.0283 102.466 27.193C102.631 27.3577 102.865 27.44 103.168 27.44C103.324 27.44 103.471 27.414 103.61 27.362C103.749 27.3013 103.87 27.2147 103.974 27.102C104.078 26.9807 104.156 26.829 104.208 26.647C104.269 26.4563 104.299 26.2353 104.299 25.984V22.5H106.509V29H104.533L104.468 27.778C104.26 28.2373 103.97 28.5797 103.597 28.805C103.224 29.0217 102.774 29.13 102.245 29.13ZM108.097 29V22.5H110.073L110.138 23.761C110.346 23.3017 110.636 22.955 111.009 22.721C111.39 22.487 111.828 22.37 112.322 22.37C112.807 22.37 113.227 22.4783 113.583 22.695C113.938 22.9117 114.202 23.2323 114.376 23.657C114.514 23.371 114.692 23.1327 114.909 22.942C115.134 22.7513 115.39 22.6083 115.676 22.513C115.962 22.4177 116.256 22.37 116.56 22.37C116.993 22.37 117.374 22.4567 117.704 22.63C118.033 22.7947 118.293 23.0503 118.484 23.397C118.683 23.735 118.783 24.1597 118.783 24.671V29H116.573V25.178C116.573 24.762 116.49 24.4717 116.326 24.307C116.17 24.1423 115.957 24.06 115.689 24.06C115.472 24.06 115.273 24.1163 115.091 24.229C114.917 24.333 114.783 24.4933 114.688 24.71C114.592 24.9267 114.545 25.1997 114.545 25.529V29H112.335V25.178C112.335 24.762 112.252 24.4717 112.088 24.307C111.923 24.1423 111.711 24.06 111.451 24.06C111.251 24.06 111.061 24.112 110.879 24.216C110.705 24.32 110.567 24.4847 110.463 24.71C110.359 24.9267 110.307 25.2127 110.307 25.568V29H108.097ZM123.962 24.879C123.962 24.5757 123.875 24.3373 123.702 24.164C123.537 23.982 123.312 23.891 123.026 23.891C122.74 23.891 122.493 23.9647 122.285 24.112C122.086 24.2507 121.947 24.502 121.869 24.866L119.997 24.424C120.118 23.8 120.439 23.3017 120.959 22.929C121.479 22.5563 122.211 22.37 123.156 22.37C123.789 22.37 124.326 22.4653 124.768 22.656C125.219 22.838 125.561 23.1153 125.795 23.488C126.038 23.852 126.159 24.3027 126.159 24.84V27.219C126.159 27.557 126.311 27.726 126.614 27.726C126.77 27.726 126.896 27.7087 126.991 27.674L126.861 28.935C126.601 29.0563 126.285 29.117 125.912 29.117C125.574 29.117 125.275 29.065 125.015 28.961C124.755 28.8483 124.551 28.6837 124.404 28.467C124.257 28.2417 124.183 27.96 124.183 27.622V27.544L124.43 27.453C124.43 27.8257 124.317 28.1377 124.092 28.389C123.875 28.6403 123.589 28.8267 123.234 28.948C122.887 29.0693 122.523 29.13 122.142 29.13C121.7 29.13 121.314 29.0607 120.985 28.922C120.656 28.7833 120.4 28.584 120.218 28.324C120.045 28.0553 119.958 27.726 119.958 27.336C119.958 26.868 120.097 26.4823 120.374 26.179C120.66 25.867 121.106 25.6503 121.713 25.529L124.17 25.022L124.157 26.192L122.909 26.452C122.649 26.504 122.454 26.582 122.324 26.686C122.203 26.7813 122.142 26.9287 122.142 27.128C122.142 27.3187 122.211 27.4617 122.35 27.557C122.489 27.6523 122.653 27.7 122.844 27.7C122.991 27.7 123.13 27.6783 123.26 27.635C123.399 27.5917 123.52 27.5267 123.624 27.44C123.728 27.3447 123.81 27.2277 123.871 27.089C123.932 26.9503 123.962 26.7857 123.962 26.595V24.879ZM127.863 29V22.5H129.839L129.956 24.736L129.709 24.489C129.796 24.021 129.948 23.631 130.164 23.319C130.39 23.007 130.667 22.773 130.996 22.617C131.334 22.4523 131.711 22.37 132.127 22.37C132.578 22.37 132.968 22.4567 133.297 22.63C133.635 22.8033 133.9 23.059 134.09 23.397C134.281 23.735 134.376 24.1597 134.376 24.671V29H132.166V25.256C132.166 24.8053 132.08 24.4933 131.906 24.32C131.733 24.1467 131.512 24.06 131.243 24.06C131.035 24.06 130.84 24.112 130.658 24.216C130.476 24.3113 130.333 24.4673 130.229 24.684C130.125 24.9007 130.073 25.191 130.073 25.555V29H127.863ZM143.155 20.29C143.952 20.29 144.654 20.4157 145.261 20.667C145.876 20.9097 146.409 21.2693 146.86 21.746L145.781 23.189C145.408 22.799 145.005 22.5087 144.572 22.318C144.147 22.1187 143.662 22.019 143.116 22.019C142.795 22.019 142.535 22.0537 142.336 22.123C142.136 22.1923 141.993 22.2877 141.907 22.409C141.82 22.5303 141.777 22.669 141.777 22.825C141.777 23.007 141.859 23.163 142.024 23.293C142.197 23.4143 142.474 23.5183 142.856 23.605L144.299 23.93C145.157 24.1293 145.785 24.4197 146.184 24.801C146.582 25.1823 146.782 25.6893 146.782 26.322C146.782 26.9287 146.626 27.4443 146.314 27.869C146.002 28.285 145.573 28.6013 145.027 28.818C144.481 29.026 143.857 29.13 143.155 29.13C142.583 29.13 142.037 29.0693 141.517 28.948C140.997 28.818 140.529 28.636 140.113 28.402C139.697 28.168 139.346 27.8993 139.06 27.596L140.139 26.101C140.355 26.3523 140.62 26.5777 140.932 26.777C141.252 26.9677 141.599 27.1193 141.972 27.232C142.353 27.3447 142.739 27.401 143.129 27.401C143.432 27.401 143.683 27.3707 143.883 27.31C144.091 27.2493 144.242 27.1583 144.338 27.037C144.433 26.9157 144.481 26.7727 144.481 26.608C144.481 26.426 144.416 26.2743 144.286 26.153C144.156 26.023 143.909 25.9147 143.545 25.828L141.959 25.477C141.473 25.3643 141.04 25.217 140.659 25.035C140.286 24.8443 139.991 24.593 139.775 24.281C139.558 23.9603 139.45 23.5617 139.45 23.085C139.45 22.5477 139.597 22.071 139.892 21.655C140.186 21.2303 140.611 20.8967 141.166 20.654C141.72 20.4113 142.383 20.29 143.155 20.29ZM151.104 22.37C151.763 22.37 152.309 22.4653 152.742 22.656C153.184 22.838 153.527 23.085 153.769 23.397C154.021 23.7003 154.177 24.0297 154.237 24.385L152.196 25.061C152.136 24.6883 152.023 24.411 151.858 24.229C151.702 24.0383 151.473 23.943 151.169 23.943C150.892 23.943 150.658 24.008 150.467 24.138C150.285 24.2593 150.147 24.4587 150.051 24.736C149.956 25.0047 149.908 25.3513 149.908 25.776C149.908 26.2007 149.96 26.5473 150.064 26.816C150.168 27.076 150.316 27.2667 150.506 27.388C150.697 27.5007 150.922 27.557 151.182 27.557C151.399 27.557 151.577 27.518 151.715 27.44C151.863 27.3533 151.984 27.232 152.079 27.076C152.175 26.92 152.235 26.7293 152.261 26.504L154.25 27.141C154.19 27.5223 154.025 27.8647 153.756 28.168C153.496 28.4627 153.15 28.6967 152.716 28.87C152.283 29.0433 151.776 29.13 151.195 29.13C150.485 29.13 149.865 29 149.336 28.74C148.808 28.4713 148.4 28.0857 148.114 27.583C147.828 27.0717 147.685 26.4607 147.685 25.75C147.685 25.0393 147.828 24.4327 148.114 23.93C148.4 23.4187 148.799 23.033 149.31 22.773C149.83 22.5043 150.428 22.37 151.104 22.37ZM156.504 21.746C156.054 21.746 155.724 21.6637 155.516 21.499C155.317 21.3257 155.217 21.057 155.217 20.693C155.217 20.3203 155.317 20.0517 155.516 19.887C155.724 19.7137 156.054 19.627 156.504 19.627C156.946 19.627 157.271 19.7137 157.479 19.887C157.687 20.0517 157.791 20.3203 157.791 20.693C157.791 21.057 157.687 21.3257 157.479 21.499C157.271 21.6637 156.946 21.746 156.504 21.746ZM157.609 22.5V29H155.399V22.5H157.609ZM162.355 29.13C161.635 29.13 161.011 28.9957 160.483 28.727C159.963 28.4583 159.56 28.0727 159.274 27.57C158.988 27.0673 158.845 26.4607 158.845 25.75C158.845 25.0393 158.988 24.4327 159.274 23.93C159.56 23.4273 159.958 23.0417 160.47 22.773C160.99 22.5043 161.583 22.37 162.251 22.37C162.935 22.37 163.516 22.5043 163.993 22.773C164.478 23.033 164.846 23.397 165.098 23.865C165.349 24.3243 165.475 24.853 165.475 25.451C165.475 25.607 165.47 25.763 165.462 25.919C165.453 26.075 165.44 26.205 165.423 26.309H160.275V25.126H164.448L163.395 25.529C163.395 25.009 163.299 24.6103 163.109 24.333C162.927 24.0557 162.641 23.917 162.251 23.917C161.973 23.917 161.735 23.982 161.536 24.112C161.345 24.242 161.198 24.4457 161.094 24.723C160.998 25.0003 160.951 25.3557 160.951 25.789C160.951 26.2137 161.007 26.5603 161.12 26.829C161.232 27.089 161.393 27.2797 161.601 27.401C161.809 27.5137 162.06 27.57 162.355 27.57C162.684 27.57 162.944 27.505 163.135 27.375C163.334 27.245 163.481 27.063 163.577 26.829L165.345 27.414C165.223 27.7867 165.011 28.103 164.708 28.363C164.413 28.6143 164.058 28.805 163.642 28.935C163.234 29.065 162.805 29.13 162.355 29.13ZM166.711 29V22.5H168.687L168.804 24.736L168.557 24.489C168.644 24.021 168.795 23.631 169.012 23.319C169.237 23.007 169.515 22.773 169.844 22.617C170.182 22.4523 170.559 22.37 170.975 22.37C171.426 22.37 171.816 22.4567 172.145 22.63C172.483 22.8033 172.747 23.059 172.938 23.397C173.129 23.735 173.224 24.1597 173.224 24.671V29H171.014V25.256C171.014 24.8053 170.927 24.4933 170.754 24.32C170.581 24.1467 170.36 24.06 170.091 24.06C169.883 24.06 169.688 24.112 169.506 24.216C169.324 24.3113 169.181 24.4673 169.077 24.684C168.973 24.9007 168.921 25.191 168.921 25.555V29H166.711ZM177.853 22.37C178.512 22.37 179.058 22.4653 179.491 22.656C179.933 22.838 180.276 23.085 180.518 23.397C180.77 23.7003 180.926 24.0297 180.986 24.385L178.945 25.061C178.885 24.6883 178.772 24.411 178.607 24.229C178.451 24.0383 178.222 23.943 177.918 23.943C177.641 23.943 177.407 24.008 177.216 24.138C177.034 24.2593 176.896 24.4587 176.8 24.736C176.705 25.0047 176.657 25.3513 176.657 25.776C176.657 26.2007 176.709 26.5473 176.813 26.816C176.917 27.076 177.065 27.2667 177.255 27.388C177.446 27.5007 177.671 27.557 177.931 27.557C178.148 27.557 178.326 27.518 178.464 27.44C178.612 27.3533 178.733 27.232 178.828 27.076C178.924 26.92 178.984 26.7293 179.01 26.504L180.999 27.141C180.939 27.5223 180.774 27.8647 180.505 28.168C180.245 28.4627 179.899 28.6967 179.465 28.87C179.032 29.0433 178.525 29.13 177.944 29.13C177.234 29.13 176.614 29 176.085 28.74C175.557 28.4713 175.149 28.0857 174.863 27.583C174.577 27.0717 174.434 26.4607 174.434 25.75C174.434 25.0393 174.577 24.4327 174.863 23.93C175.149 23.4187 175.548 23.033 176.059 22.773C176.579 22.5043 177.177 22.37 177.853 22.37ZM185.32 29.13C184.601 29.13 183.977 28.9957 183.448 28.727C182.928 28.4583 182.525 28.0727 182.239 27.57C181.953 27.0673 181.81 26.4607 181.81 25.75C181.81 25.0393 181.953 24.4327 182.239 23.93C182.525 23.4273 182.924 23.0417 183.435 22.773C183.955 22.5043 184.549 22.37 185.216 22.37C185.901 22.37 186.482 22.5043 186.958 22.773C187.444 23.033 187.812 23.397 188.063 23.865C188.315 24.3243 188.44 24.853 188.44 25.451C188.44 25.607 188.436 25.763 188.427 25.919C188.419 26.075 188.406 26.205 188.388 26.309H183.24V25.126H187.413L186.36 25.529C186.36 25.009 186.265 24.6103 186.074 24.333C185.892 24.0557 185.606 23.917 185.216 23.917C184.939 23.917 184.701 23.982 184.501 24.112C184.311 24.242 184.163 24.4457 184.059 24.723C183.964 25.0003 183.916 25.3557 183.916 25.789C183.916 26.2137 183.973 26.5603 184.085 26.829C184.198 27.089 184.358 27.2797 184.566 27.401C184.774 27.5137 185.026 27.57 185.32 27.57C185.65 27.57 185.91 27.505 186.1 27.375C186.3 27.245 186.447 27.063 186.542 26.829L188.31 27.414C188.189 27.7867 187.977 28.103 187.673 28.363C187.379 28.6143 187.023 28.805 186.607 28.935C186.2 29.065 185.771 29.13 185.32 29.13ZM192.407 29.13C191.757 29.13 191.15 29.026 190.587 28.818C190.032 28.6013 189.573 28.2937 189.209 27.895L190.249 26.673C190.465 26.9503 190.751 27.1843 191.107 27.375C191.471 27.557 191.874 27.648 192.316 27.648C192.584 27.648 192.805 27.609 192.979 27.531C193.152 27.453 193.239 27.3317 193.239 27.167C193.239 27.0457 193.195 26.9503 193.109 26.881C193.022 26.803 192.849 26.738 192.589 26.686L191.679 26.504C190.864 26.3393 190.283 26.0967 189.937 25.776C189.599 25.4467 189.43 25.0177 189.43 24.489C189.43 24.1337 189.538 23.7957 189.755 23.475C189.971 23.1457 190.305 22.8813 190.756 22.682C191.206 22.474 191.783 22.37 192.485 22.37C193.143 22.37 193.724 22.4653 194.227 22.656C194.729 22.8467 195.128 23.124 195.423 23.488L194.37 24.684C194.162 24.424 193.893 24.2203 193.564 24.073C193.234 23.9257 192.905 23.852 192.576 23.852C192.368 23.852 192.19 23.8737 192.043 23.917C191.904 23.9517 191.8 24.0037 191.731 24.073C191.661 24.1423 191.627 24.229 191.627 24.333C191.627 24.4457 191.679 24.5453 191.783 24.632C191.895 24.71 192.099 24.7793 192.394 24.84L193.577 25.074C194.244 25.1953 194.725 25.4163 195.02 25.737C195.314 26.0577 195.462 26.4433 195.462 26.894C195.462 27.3187 195.349 27.7 195.124 28.038C194.898 28.376 194.56 28.6447 194.11 28.844C193.659 29.0347 193.091 29.13 192.407 29.13Z" fill="white"/>
</svg>
