<svg width="191" height="36" viewBox="0 0 191 36" fill="none" xmlns="http://www.w3.org/2000/svg">
<path d="M17.6873 19.3336L20.4618 20.8943H20.693L20.6352 21.0099L29.9992 26.4434V9.10254L17.6873 16.2123V19.3336Z" fill="#D6001C"/>
<path d="M9.53745 20.8943L12.312 19.3336V16.2123L0 9.10254V26.4434L9.36405 21.0099V20.8943H9.53745Z" fill="#76232F"/>
<path d="M15.0288 0.43335L29.9997 9.10376V0.43335H15.0288Z" fill="#D6001C"/>
<path d="M0 0.43335V9.10376L15.0287 0.43335H0Z" fill="#76232F"/>
<path d="M21.1562 23.3226V24.3631H20.636C20.1158 24.7099 19.7689 25.2301 19.7111 25.8659H19.1909L19.2487 27.022L19.5377 32.3976L30 26.3862L20.636 21.0105L20.1158 23.3226H21.1562Z" fill="#76232F"/>
<path d="M20.4618 20.8949L17.6873 19.3342V20.8949H20.4618Z" fill="#76232F"/>
<path d="M9.88427 23.3226L9.36404 21.0105L0 26.444L10.4623 32.4554L10.8091 25.8659H10.2889C10.2311 25.2301 9.88427 24.7099 9.36404 24.3631H8.84382V23.3226H9.88427Z" fill="#D6001C"/>
<path d="M12.3119 19.3342L9.53735 20.8949H12.3119V19.3342Z" fill="#D6001C"/>
<path d="M15.3758 11.0687C15.4336 11.0687 15.4914 11.0687 15.5493 11.0687C15.8383 10.7797 15.8383 10.2595 15.5493 9.97047C15.3758 9.79706 15.2024 9.73926 14.9712 9.73926C14.9134 9.73926 14.8556 9.73926 14.7978 9.73926C14.5088 10.0283 14.5088 10.5485 14.7978 10.8375C14.9134 11.0109 15.1446 11.1265 15.3758 11.0687Z" fill="white"/>
<path d="M16.2422 26.1547C14.0457 26.1547 13.4677 27.4842 13.4677 27.4842L13.3521 27.7732L13.1208 34.0159L15.0283 35.1141L19.5948 32.513L19.3057 27.1373C19.2479 27.0217 18.7277 26.0969 16.2422 26.1547Z" fill="white"/>
<path d="M8.84351 23.323V24.3634H9.36373C9.88395 24.7103 10.2308 25.2305 10.2886 25.8663H10.8088L10.462 32.4558L13.1209 33.9587L13.3521 27.716L13.4677 27.427C13.4677 27.427 14.0458 26.0975 16.1845 26.0975C18.67 26.0397 19.1902 26.9646 19.248 27.0224L19.1902 25.8663H19.7104C19.7682 25.2305 20.115 24.7103 20.6353 24.3634H21.2133V23.323H8.84351Z" fill="#B3B3B3"/>
<path d="M15.5492 30.5476C15.607 30.2586 15.3758 30.0274 15.0868 29.9696C14.7978 29.9118 14.5666 30.143 14.5088 30.432C14.5088 30.4898 14.5088 30.4898 14.5088 30.5476V31.8771H15.5492V30.5476Z" fill="#B3B3B3"/>
<path d="M13.0054 15.2883V16.0398L15.0285 17.1958L16.9938 16.0398V15.2883H13.0054Z" fill="#76232F"/>
<path d="M15.0285 18.3516L13.0054 19.5076V20.2591H16.9938V19.5076L15.0285 18.3516Z" fill="#76232F"/>
<path d="M17.6874 14.6523H17.9186C18.0921 14.6523 18.2077 14.7679 18.2077 14.9413C18.2077 15.1147 18.0921 15.2881 17.9186 15.2881H17.6874V16.213L29.9994 9.10322L14.9707 0.375V9.68125C15.3753 9.68125 15.7221 10.0281 15.7221 10.4327C15.7221 10.6639 15.6643 10.8373 15.4909 10.9529C15.3753 11.0685 15.3175 11.2419 15.3175 11.3575C15.3175 11.5309 15.4331 11.7621 15.5487 11.8778C16.8782 12.2824 17.7452 13.3806 17.6874 14.6523Z" fill="#76232F"/>
<path d="M15.0285 20.26H13.0632V19.5085L15.0285 18.3525V17.1386L13.0632 15.9826V15.2311H13.9302C13.8724 15.2311 13.8146 15.0577 13.8146 14.8843C13.8146 14.7109 13.8724 14.5375 13.9302 14.5375H13.988C13.988 13.0346 14.4504 11.8208 15.0285 11.8208C15.2597 11.8208 15.4331 11.8208 15.6643 11.8786C15.4909 11.763 15.4331 11.5896 15.4331 11.3584C15.4331 11.1849 15.4909 11.0693 15.6065 10.9537C15.5487 10.9537 15.4909 10.9537 15.4331 10.9537C15.0285 10.9537 14.6816 10.6069 14.6238 10.2023C14.6238 9.97108 14.6816 9.79768 14.855 9.62427C14.4504 9.73987 14.2192 10.1445 14.277 10.5491C14.3348 10.6647 14.3926 10.7803 14.4504 10.8959C14.566 11.0115 14.6238 11.1849 14.6238 11.3584C14.6238 11.5318 14.5082 11.763 14.3926 11.8786C13.1788 12.1676 12.3117 13.2658 12.3117 14.5375H12.0805C11.9071 14.5375 11.7915 14.6531 11.7915 14.8265C11.7915 14.9999 11.9071 15.1733 12.0805 15.1733H12.3117V20.7802H15.0285V20.26Z" fill="#B3B3B3"/>
<path d="M15.0284 17.1956V18.4095L16.9937 19.5655V20.3169H15.0284V20.9528H9.36377L9.88399 23.3805H20.1151L20.6353 20.9528H17.6874V15.2881H17.9186C18.092 15.2881 18.2076 15.1147 18.2076 14.9413C18.2076 14.7679 18.0342 14.6523 17.9186 14.6523H17.6874C17.6874 13.1494 16.5313 11.9355 15.0284 11.9355H14.9706C14.4504 11.9355 13.9302 13.1494 13.9302 14.6523H13.8724C13.8146 14.6523 13.7568 14.7679 13.7568 14.9991C13.7568 15.1725 13.8146 15.2881 13.8724 15.3459H16.9937V16.0973L15.0284 17.1956Z" fill="white"/>
<path d="M13.0054 17.0222L14.3348 17.7737L13.0054 18.5251V17.0222Z" fill="#76232F"/>
<path d="M16.9936 17.0222L15.7219 17.7737L16.9936 18.5251V17.0222Z" fill="#D6001C"/>
<path d="M20.5777 9.7968L19.4795 10.8951L19.5373 9.33438L18.0344 9.10316L19.3061 8.23612L18.5546 6.84886L19.9997 7.31128L20.5777 5.86621L21.1558 7.31128L22.6586 6.84886L21.9072 8.23612L23.1789 9.10316L21.6182 9.33438L21.7338 10.8951L20.5777 9.7968Z" fill="white"/>
<path d="M12.1386 15.2887C11.9652 15.2887 11.8496 15.1152 11.8496 14.9418C11.8496 14.7684 11.9652 14.595 12.1386 14.595H12.3698C12.3698 13.3234 13.2368 12.2829 14.4507 11.9939C14.6241 11.8783 14.6819 11.7049 14.6819 11.4737C14.6819 11.3003 14.6241 11.1269 14.5085 11.0113C14.2195 10.7222 14.2195 10.202 14.5085 9.913C14.6241 9.7974 14.7397 9.73959 14.8553 9.73959C14.9131 9.73959 14.9709 9.73959 15.0287 9.73959V0.43335L0 9.10376L12.312 16.2135V15.2887H12.1386Z" fill="#D6001C"/>
<path d="M12.6589 22.8606H13.4104L13.2948 21.4155H12.4277L12.6589 22.8606Z" fill="#B3B3B3"/>
<path d="M13.9305 22.8606H14.971V21.4155H13.8149L13.9305 22.8606Z" fill="#B3B3B3"/>
<path d="M11.387 22.8606H12.1384L11.965 21.4155H11.1558L11.387 22.8606Z" fill="#D6001C"/>
<path d="M10.2882 22.8606H10.8084L10.5194 21.4155H9.88354L10.2882 22.8606Z" fill="#D6001C"/>
<path d="M17.9185 22.8606H18.6699L18.9589 21.4155H18.1497L17.9185 22.8606Z" fill="#76232F"/>
<path d="M19.1909 22.8606H19.7111L20.0002 21.4155H19.4221L19.1909 22.8606Z" fill="#76232F"/>
<path d="M48.1722 7.149H43.7392V8.969H47.2752V10.698H43.7392V14H41.5032V5.42H48.1722V7.149ZM52.3502 9.879C52.3502 9.57567 52.2635 9.33733 52.0902 9.164C51.9255 8.982 51.7002 8.891 51.4142 8.891C51.1282 8.891 50.8812 8.96467 50.6732 9.112C50.4738 9.25067 50.3352 9.502 50.2572 9.866L48.3852 9.424C48.5065 8.8 48.8272 8.30167 49.3472 7.929C49.8672 7.55633 50.5995 7.37 51.5442 7.37C52.1768 7.37 52.7142 7.46533 53.1562 7.656C53.6068 7.838 53.9492 8.11533 54.1832 8.488C54.4258 8.852 54.5472 9.30267 54.5472 9.84V12.219C54.5472 12.557 54.6988 12.726 55.0022 12.726C55.1582 12.726 55.2838 12.7087 55.3792 12.674L55.2492 13.935C54.9892 14.0563 54.6728 14.117 54.3002 14.117C53.9622 14.117 53.6632 14.065 53.4032 13.961C53.1432 13.8483 52.9395 13.6837 52.7922 13.467C52.6448 13.2417 52.5712 12.96 52.5712 12.622V12.544L52.8182 12.453C52.8182 12.8257 52.7055 13.1377 52.4802 13.389C52.2635 13.6403 51.9775 13.8267 51.6222 13.948C51.2755 14.0693 50.9115 14.13 50.5302 14.13C50.0882 14.13 49.7025 14.0607 49.3732 13.922C49.0438 13.7833 48.7882 13.584 48.6062 13.324C48.4328 13.0553 48.3462 12.726 48.3462 12.336C48.3462 11.868 48.4848 11.4823 48.7622 11.179C49.0482 10.867 49.4945 10.6503 50.1012 10.529L52.5582 10.022L52.5452 11.192L51.2972 11.452C51.0372 11.504 50.8422 11.582 50.7122 11.686C50.5908 11.7813 50.5302 11.9287 50.5302 12.128C50.5302 12.3187 50.5995 12.4617 50.7382 12.557C50.8768 12.6523 51.0415 12.7 51.2322 12.7C51.3795 12.7 51.5182 12.6783 51.6482 12.635C51.7868 12.5917 51.9082 12.5267 52.0122 12.44C52.1162 12.3447 52.1985 12.2277 52.2592 12.089C52.3198 11.9503 52.3502 11.7857 52.3502 11.595V9.879ZM59.2817 7.37C59.9404 7.37 60.4864 7.46533 60.9197 7.656C61.3617 7.838 61.704 8.085 61.9467 8.397C62.198 8.70033 62.354 9.02967 62.4147 9.385L60.3737 10.061C60.313 9.68833 60.2004 9.411 60.0357 9.229C59.8797 9.03833 59.65 8.943 59.3467 8.943C59.0694 8.943 58.8354 9.008 58.6447 9.138C58.4627 9.25933 58.324 9.45867 58.2287 9.736C58.1334 10.0047 58.0857 10.3513 58.0857 10.776C58.0857 11.2007 58.1377 11.5473 58.2417 11.816C58.3457 12.076 58.493 12.2667 58.6837 12.388C58.8744 12.5007 59.0997 12.557 59.3597 12.557C59.5764 12.557 59.754 12.518 59.8927 12.44C60.04 12.3533 60.1614 12.232 60.2567 12.076C60.352 11.92 60.4127 11.7293 60.4387 11.504L62.4277 12.141C62.367 12.5223 62.2024 12.8647 61.9337 13.168C61.6737 13.4627 61.327 13.6967 60.8937 13.87C60.4604 14.0433 59.9534 14.13 59.3727 14.13C58.662 14.13 58.0424 14 57.5137 13.74C56.985 13.4713 56.5777 13.0857 56.2917 12.583C56.0057 12.0717 55.8627 11.4607 55.8627 10.75C55.8627 10.0393 56.0057 9.43267 56.2917 8.93C56.5777 8.41867 56.9764 8.033 57.4877 7.773C58.0077 7.50433 58.6057 7.37 59.2817 7.37ZM65.7737 14.13C65.3317 14.13 64.9417 14.0563 64.6037 13.909C64.2744 13.753 64.0144 13.506 63.8237 13.168C63.633 12.83 63.5377 12.388 63.5377 11.842V7.5H65.7477V11.322C65.7477 11.738 65.83 12.0283 65.9947 12.193C66.1594 12.3577 66.3934 12.44 66.6967 12.44C66.8527 12.44 67 12.414 67.1387 12.362C67.2774 12.3013 67.3987 12.2147 67.5027 12.102C67.6067 11.9807 67.6847 11.829 67.7367 11.647C67.7974 11.4563 67.8277 11.2353 67.8277 10.984V7.5H70.0377V14H68.0617L67.9967 12.778C67.7887 13.2373 67.4984 13.5797 67.1257 13.805C66.753 14.0217 66.3024 14.13 65.7737 14.13ZM73.8095 4.744V11.79C73.8095 12.076 73.8572 12.2797 73.9525 12.401C74.0479 12.5223 74.2082 12.583 74.4335 12.583C74.5635 12.583 74.6719 12.5743 74.7585 12.557C74.8452 12.5397 74.9492 12.5137 75.0705 12.479L74.9275 13.805C74.7715 13.9003 74.5679 13.9783 74.3165 14.039C74.0652 14.0997 73.8182 14.13 73.5755 14.13C72.8822 14.13 72.3795 13.9697 72.0675 13.649C71.7555 13.3283 71.5995 12.804 71.5995 12.076V4.744H73.8095ZM78.3796 5.433V11.686C78.3796 11.998 78.4533 12.2233 78.6006 12.362C78.7566 12.492 78.969 12.557 79.2376 12.557C79.4456 12.557 79.6233 12.5353 79.7706 12.492C79.9266 12.44 80.0653 12.3663 80.1866 12.271L80.4206 13.636C80.204 13.792 79.931 13.9133 79.6016 14C79.2723 14.0867 78.9343 14.13 78.5876 14.13C78.0936 14.13 77.6646 14.0607 77.3006 13.922C76.9453 13.7833 76.668 13.5623 76.4686 13.259C76.278 12.9557 76.1783 12.5527 76.1696 12.05V6.044L78.3796 5.433ZM80.3166 7.5V9.073H75.0516V7.5H80.3166ZM87.8764 7.5L85.5104 14C85.2678 14.6847 85.0034 15.2307 84.7174 15.638C84.4314 16.0453 84.0934 16.34 83.7034 16.522C83.3134 16.704 82.8454 16.795 82.2994 16.795C81.9354 16.795 81.6018 16.756 81.2984 16.678C80.9951 16.6 80.7308 16.4917 80.5054 16.353L80.9474 14.858C81.1034 14.9707 81.2681 15.0487 81.4414 15.092C81.6148 15.144 81.8358 15.17 82.1044 15.17C82.3558 15.17 82.5594 15.1267 82.7154 15.04C82.8801 14.9533 83.0101 14.7887 83.1054 14.546L83.2744 14.143L82.5204 12.375L80.5704 7.5H83.0014L84.0024 11.205L84.3144 12.583L84.6784 11.153L85.6794 7.5H87.8764ZM95.1844 7.37C95.869 7.37 96.467 7.50433 96.9784 7.773C97.4984 8.033 97.9014 8.41867 98.1874 8.93C98.482 9.43267 98.6294 10.0393 98.6294 10.75C98.6294 11.4607 98.482 12.0717 98.1874 12.583C97.9014 13.0857 97.4984 13.4713 96.9784 13.74C96.467 14 95.869 14.13 95.1844 14.13C94.517 14.13 93.9234 14 93.4034 13.74C92.8834 13.4713 92.476 13.0857 92.1814 12.583C91.8954 12.0717 91.7524 11.4607 91.7524 10.75C91.7524 10.0393 91.8954 9.43267 92.1814 8.93C92.476 8.41867 92.8834 8.033 93.4034 7.773C93.9234 7.50433 94.517 7.37 95.1844 7.37ZM95.1844 8.943C94.933 8.943 94.7164 9.00367 94.5344 9.125C94.3524 9.24633 94.2137 9.44133 94.1184 9.71C94.023 9.97867 93.9754 10.3253 93.9754 10.75C93.9754 11.1747 94.023 11.5213 94.1184 11.79C94.2137 12.05 94.3524 12.245 94.5344 12.375C94.7164 12.4963 94.933 12.557 95.1844 12.557C95.4444 12.557 95.6654 12.4963 95.8474 12.375C96.0294 12.245 96.168 12.05 96.2634 11.79C96.3587 11.5213 96.4064 11.1747 96.4064 10.75C96.4064 10.3253 96.3587 9.97867 96.2634 9.71C96.168 9.44133 96.0294 9.24633 95.8474 9.125C95.6654 9.00367 95.4444 8.943 95.1844 8.943ZM102.864 4.562C103.219 4.562 103.531 4.601 103.8 4.679C104.068 4.74833 104.268 4.83067 104.398 4.926L104.177 6.304C104.081 6.24333 103.973 6.19567 103.852 6.161C103.73 6.12633 103.579 6.109 103.397 6.109C103.093 6.109 102.842 6.17833 102.643 6.317C102.452 6.45567 102.357 6.69833 102.357 7.045V7.89L102.487 8.254V14H100.277V6.902C100.277 6.486 100.342 6.13067 100.472 5.836C100.61 5.54133 100.801 5.29867 101.044 5.108C101.286 4.91733 101.564 4.77867 101.876 4.692C102.188 4.60533 102.517 4.562 102.864 4.562ZM104.333 7.5V9.073H99.2365V7.5H104.333ZM112.257 5.29C113.054 5.29 113.756 5.41567 114.363 5.667C114.978 5.90967 115.511 6.26933 115.962 6.746L114.883 8.189C114.51 7.799 114.107 7.50867 113.674 7.318C113.249 7.11867 112.764 7.019 112.218 7.019C111.897 7.019 111.637 7.05367 111.438 7.123C111.238 7.19233 111.095 7.28767 111.009 7.409C110.922 7.53033 110.879 7.669 110.879 7.825C110.879 8.007 110.961 8.163 111.126 8.293C111.299 8.41433 111.576 8.51833 111.958 8.605L113.401 8.93C114.259 9.12933 114.887 9.41967 115.286 9.801C115.684 10.1823 115.884 10.6893 115.884 11.322C115.884 11.9287 115.728 12.4443 115.416 12.869C115.104 13.285 114.675 13.6013 114.129 13.818C113.583 14.026 112.959 14.13 112.257 14.13C111.685 14.13 111.139 14.0693 110.619 13.948C110.099 13.818 109.631 13.636 109.215 13.402C108.799 13.168 108.448 12.8993 108.162 12.596L109.241 11.101C109.457 11.3523 109.722 11.5777 110.034 11.777C110.354 11.9677 110.701 12.1193 111.074 12.232C111.455 12.3447 111.841 12.401 112.231 12.401C112.534 12.401 112.785 12.3707 112.985 12.31C113.193 12.2493 113.344 12.1583 113.44 12.037C113.535 11.9157 113.583 11.7727 113.583 11.608C113.583 11.426 113.518 11.2743 113.388 11.153C113.258 11.023 113.011 10.9147 112.647 10.828L111.061 10.477C110.575 10.3643 110.142 10.217 109.761 10.035C109.388 9.84433 109.093 9.593 108.877 9.281C108.66 8.96033 108.552 8.56167 108.552 8.085C108.552 7.54767 108.699 7.071 108.994 6.655C109.288 6.23033 109.713 5.89667 110.268 5.654C110.822 5.41133 111.485 5.29 112.257 5.29ZM120.207 7.37C120.865 7.37 121.411 7.46533 121.845 7.656C122.287 7.838 122.629 8.085 122.872 8.397C123.123 8.70033 123.279 9.02967 123.34 9.385L121.299 10.061C121.238 9.68833 121.125 9.411 120.961 9.229C120.805 9.03833 120.575 8.943 120.272 8.943C119.994 8.943 119.76 9.008 119.57 9.138C119.388 9.25933 119.249 9.45867 119.154 9.736C119.058 10.0047 119.011 10.3513 119.011 10.776C119.011 11.2007 119.063 11.5473 119.167 11.816C119.271 12.076 119.418 12.2667 119.609 12.388C119.799 12.5007 120.025 12.557 120.285 12.557C120.501 12.557 120.679 12.518 120.818 12.44C120.965 12.3533 121.086 12.232 121.182 12.076C121.277 11.92 121.338 11.7293 121.364 11.504L123.353 12.141C123.292 12.5223 123.127 12.8647 122.859 13.168C122.599 13.4627 122.252 13.6967 121.819 13.87C121.385 14.0433 120.878 14.13 120.298 14.13C119.587 14.13 118.967 14 118.439 13.74C117.91 13.4713 117.503 13.0857 117.217 12.583C116.931 12.0717 116.788 11.4607 116.788 10.75C116.788 10.0393 116.931 9.43267 117.217 8.93C117.503 8.41867 117.901 8.033 118.413 7.773C118.933 7.50433 119.531 7.37 120.207 7.37ZM125.606 6.746C125.156 6.746 124.826 6.66367 124.618 6.499C124.419 6.32567 124.319 6.057 124.319 5.693C124.319 5.32033 124.419 5.05167 124.618 4.887C124.826 4.71367 125.156 4.627 125.606 4.627C126.048 4.627 126.373 4.71367 126.581 4.887C126.789 5.05167 126.893 5.32033 126.893 5.693C126.893 6.057 126.789 6.32567 126.581 6.499C126.373 6.66367 126.048 6.746 125.606 6.746ZM126.711 7.5V14H124.501V7.5H126.711ZM131.457 14.13C130.737 14.13 130.113 13.9957 129.585 13.727C129.065 13.4583 128.662 13.0727 128.376 12.57C128.09 12.0673 127.947 11.4607 127.947 10.75C127.947 10.0393 128.09 9.43267 128.376 8.93C128.662 8.42733 129.06 8.04167 129.572 7.773C130.092 7.50433 130.685 7.37 131.353 7.37C132.037 7.37 132.618 7.50433 133.095 7.773C133.58 8.033 133.948 8.397 134.2 8.865C134.451 9.32433 134.577 9.853 134.577 10.451C134.577 10.607 134.572 10.763 134.564 10.919C134.555 11.075 134.542 11.205 134.525 11.309H129.377V10.126H133.55L132.497 10.529C132.497 10.009 132.401 9.61033 132.211 9.333C132.029 9.05567 131.743 8.917 131.353 8.917C131.075 8.917 130.837 8.982 130.638 9.112C130.447 9.242 130.3 9.44567 130.196 9.723C130.1 10.0003 130.053 10.3557 130.053 10.789C130.053 11.2137 130.109 11.5603 130.222 11.829C130.334 12.089 130.495 12.2797 130.703 12.401C130.911 12.5137 131.162 12.57 131.457 12.57C131.786 12.57 132.046 12.505 132.237 12.375C132.436 12.245 132.583 12.063 132.679 11.829L134.447 12.414C134.325 12.7867 134.113 13.103 133.81 13.363C133.515 13.6143 133.16 13.805 132.744 13.935C132.336 14.065 131.907 14.13 131.457 14.13ZM135.813 14V7.5H137.789L137.906 9.736L137.659 9.489C137.746 9.021 137.897 8.631 138.114 8.319C138.339 8.007 138.617 7.773 138.946 7.617C139.284 7.45233 139.661 7.37 140.077 7.37C140.528 7.37 140.918 7.45667 141.247 7.63C141.585 7.80333 141.849 8.059 142.04 8.397C142.231 8.735 142.326 9.15967 142.326 9.671V14H140.116V10.256C140.116 9.80533 140.029 9.49333 139.856 9.32C139.683 9.14667 139.462 9.06 139.193 9.06C138.985 9.06 138.79 9.112 138.608 9.216C138.426 9.31133 138.283 9.46733 138.179 9.684C138.075 9.90067 138.023 10.191 138.023 10.555V14H135.813ZM146.956 7.37C147.614 7.37 148.16 7.46533 148.594 7.656C149.036 7.838 149.378 8.085 149.621 8.397C149.872 8.70033 150.028 9.02967 150.089 9.385L148.048 10.061C147.987 9.68833 147.874 9.411 147.71 9.229C147.554 9.03833 147.324 8.943 147.021 8.943C146.743 8.943 146.509 9.008 146.319 9.138C146.137 9.25933 145.998 9.45867 145.903 9.736C145.807 10.0047 145.76 10.3513 145.76 10.776C145.76 11.2007 145.812 11.5473 145.916 11.816C146.02 12.076 146.167 12.2667 146.358 12.388C146.548 12.5007 146.774 12.557 147.034 12.557C147.25 12.557 147.428 12.518 147.567 12.44C147.714 12.3533 147.835 12.232 147.931 12.076C148.026 11.92 148.087 11.7293 148.113 11.504L150.102 12.141C150.041 12.5223 149.876 12.8647 149.608 13.168C149.348 13.4627 149.001 13.6967 148.568 13.87C148.134 14.0433 147.627 14.13 147.047 14.13C146.336 14.13 145.716 14 145.188 13.74C144.659 13.4713 144.252 13.0857 143.966 12.583C143.68 12.0717 143.537 11.4607 143.537 10.75C143.537 10.0393 143.68 9.43267 143.966 8.93C144.252 8.41867 144.65 8.033 145.162 7.773C145.682 7.50433 146.28 7.37 146.956 7.37ZM154.423 14.13C153.703 14.13 153.079 13.9957 152.551 13.727C152.031 13.4583 151.628 13.0727 151.342 12.57C151.056 12.0673 150.913 11.4607 150.913 10.75C150.913 10.0393 151.056 9.43267 151.342 8.93C151.628 8.42733 152.026 8.04167 152.538 7.773C153.058 7.50433 153.651 7.37 154.319 7.37C155.003 7.37 155.584 7.50433 156.061 7.773C156.546 8.033 156.914 8.397 157.166 8.865C157.417 9.32433 157.543 9.853 157.543 10.451C157.543 10.607 157.538 10.763 157.53 10.919C157.521 11.075 157.508 11.205 157.491 11.309H152.343V10.126H156.516L155.463 10.529C155.463 10.009 155.367 9.61033 155.177 9.333C154.995 9.05567 154.709 8.917 154.319 8.917C154.041 8.917 153.803 8.982 153.604 9.112C153.413 9.242 153.266 9.44567 153.162 9.723C153.066 10.0003 153.019 10.3557 153.019 10.789C153.019 11.2137 153.075 11.5603 153.188 11.829C153.3 12.089 153.461 12.2797 153.669 12.401C153.877 12.5137 154.128 12.57 154.423 12.57C154.752 12.57 155.012 12.505 155.203 12.375C155.402 12.245 155.549 12.063 155.645 11.829L157.413 12.414C157.291 12.7867 157.079 13.103 156.776 13.363C156.481 13.6143 156.126 13.805 155.71 13.935C155.302 14.065 154.873 14.13 154.423 14.13ZM166.126 9.879C166.126 9.57567 166.039 9.33733 165.866 9.164C165.701 8.982 165.476 8.891 165.19 8.891C164.904 8.891 164.657 8.96467 164.449 9.112C164.249 9.25067 164.111 9.502 164.033 9.866L162.161 9.424C162.282 8.8 162.603 8.30167 163.123 7.929C163.643 7.55633 164.375 7.37 165.32 7.37C165.952 7.37 166.49 7.46533 166.932 7.656C167.382 7.838 167.725 8.11533 167.959 8.488C168.201 8.852 168.323 9.30267 168.323 9.84V12.219C168.323 12.557 168.474 12.726 168.778 12.726C168.934 12.726 169.059 12.7087 169.155 12.674L169.025 13.935C168.765 14.0563 168.448 14.117 168.076 14.117C167.738 14.117 167.439 14.065 167.179 13.961C166.919 13.8483 166.715 13.6837 166.568 13.467C166.42 13.2417 166.347 12.96 166.347 12.622V12.544L166.594 12.453C166.594 12.8257 166.481 13.1377 166.256 13.389C166.039 13.6403 165.753 13.8267 165.398 13.948C165.051 14.0693 164.687 14.13 164.306 14.13C163.864 14.13 163.478 14.0607 163.149 13.922C162.819 13.7833 162.564 13.584 162.382 13.324C162.208 13.0553 162.122 12.726 162.122 12.336C162.122 11.868 162.26 11.4823 162.538 11.179C162.824 10.867 163.27 10.6503 163.877 10.529L166.334 10.022L166.321 11.192L165.073 11.452C164.813 11.504 164.618 11.582 164.488 11.686C164.366 11.7813 164.306 11.9287 164.306 12.128C164.306 12.3187 164.375 12.4617 164.514 12.557C164.652 12.6523 164.817 12.7 165.008 12.7C165.155 12.7 165.294 12.6783 165.424 12.635C165.562 12.5917 165.684 12.5267 165.788 12.44C165.892 12.3447 165.974 12.2277 166.035 12.089C166.095 11.9503 166.126 11.7857 166.126 11.595V9.879ZM170.027 14V7.5H172.003L172.12 9.736L171.873 9.489C171.96 9.021 172.111 8.631 172.328 8.319C172.553 8.007 172.831 7.773 173.16 7.617C173.498 7.45233 173.875 7.37 174.291 7.37C174.742 7.37 175.132 7.45667 175.461 7.63C175.799 7.80333 176.063 8.059 176.254 8.397C176.445 8.735 176.54 9.15967 176.54 9.671V14H174.33V10.256C174.33 9.80533 174.243 9.49333 174.07 9.32C173.897 9.14667 173.676 9.06 173.407 9.06C173.199 9.06 173.004 9.112 172.822 9.216C172.64 9.31133 172.497 9.46733 172.393 9.684C172.289 9.90067 172.237 10.191 172.237 10.555V14H170.027ZM180.48 14.13C179.943 14.13 179.471 14 179.063 13.74C178.665 13.4713 178.353 13.0857 178.127 12.583C177.911 12.0803 177.802 11.478 177.802 10.776C177.802 10.048 177.915 9.43267 178.14 8.93C178.374 8.42733 178.695 8.04167 179.102 7.773C179.518 7.50433 179.995 7.37 180.532 7.37C181.122 7.37 181.594 7.552 181.949 7.916C182.313 8.27133 182.547 8.72633 182.651 9.281L182.443 9.554V4.744H184.653V14H182.677L182.534 11.79L182.794 11.985C182.742 12.4183 182.608 12.7953 182.391 13.116C182.183 13.4367 181.915 13.688 181.585 13.87C181.265 14.0433 180.896 14.13 180.48 14.13ZM181.247 12.505C181.499 12.505 181.711 12.44 181.884 12.31C182.066 12.1713 182.205 11.9677 182.3 11.699C182.396 11.4303 182.443 11.101 182.443 10.711C182.443 10.347 182.396 10.0393 182.3 9.788C182.214 9.528 182.079 9.333 181.897 9.203C181.724 9.06433 181.512 8.995 181.26 8.995C180.879 8.995 180.576 9.138 180.35 9.424C180.134 9.70133 180.025 10.1433 180.025 10.75C180.025 11.3567 180.134 11.803 180.35 12.089C180.567 12.3663 180.866 12.505 181.247 12.505ZM76.3772 29V20.42H83.0592V22.149H78.6132V23.891H82.1492V25.516H78.6132V27.271H83.2282V29H76.3772ZM84.4224 29V22.5H86.3984L86.5154 24.736L86.2684 24.489C86.3551 24.021 86.5067 23.631 86.7234 23.319C86.9487 23.007 87.2261 22.773 87.5554 22.617C87.8934 22.4523 88.2704 22.37 88.6864 22.37C89.1371 22.37 89.5271 22.4567 89.8564 22.63C90.1944 22.8033 90.4587 23.059 90.6494 23.397C90.8401 23.735 90.9354 24.1597 90.9354 24.671V29H88.7254V25.256C88.7254 24.8053 88.6387 24.4933 88.4654 24.32C88.2921 24.1467 88.0711 24.06 87.8024 24.06C87.5944 24.06 87.3994 24.112 87.2174 24.216C87.0354 24.3113 86.8924 24.4673 86.7884 24.684C86.6844 24.9007 86.6324 25.191 86.6324 25.555V29H84.4224ZM98.7759 20.758L98.9579 22.24C98.9059 22.2227 98.8539 22.214 98.8019 22.214C98.7499 22.2053 98.6979 22.201 98.6459 22.201C98.2646 22.201 97.9786 22.2963 97.7879 22.487C97.6059 22.669 97.5149 22.8987 97.5149 23.176L96.7349 22.89C96.7349 22.5347 96.7999 22.1923 96.9299 21.863C97.0599 21.5337 97.2593 21.265 97.5279 21.057C97.8053 20.849 98.1519 20.745 98.5679 20.745C98.5939 20.745 98.6243 20.745 98.6589 20.745C98.7023 20.745 98.7413 20.7493 98.7759 20.758ZM96.5399 27.557C97.2939 27.557 97.8703 27.7173 98.2689 28.038C98.6763 28.35 98.8799 28.8007 98.8799 29.39C98.8799 29.9273 98.7326 30.3737 98.4379 30.729C98.1433 31.0843 97.7273 31.3487 97.1899 31.522C96.6613 31.704 96.0329 31.795 95.3049 31.795C94.1263 31.795 93.2769 31.6477 92.7569 31.353C92.2369 31.0583 91.9769 30.6597 91.9769 30.157C91.9769 29.793 92.1243 29.4983 92.4189 29.273C92.7136 29.0477 93.2033 28.9263 93.8879 28.909L93.8359 29.117C93.3073 29.0477 92.9129 28.8917 92.6529 28.649C92.3929 28.4063 92.2629 28.077 92.2629 27.661C92.2629 27.245 92.4276 26.907 92.7569 26.647C93.0863 26.387 93.5239 26.244 94.0699 26.218L94.8759 26.595H94.6679C94.3299 26.6123 94.0916 26.6687 93.9529 26.764C93.8143 26.8593 93.7449 26.9763 93.7449 27.115C93.7449 27.2623 93.8056 27.375 93.9269 27.453C94.0483 27.5223 94.2303 27.557 94.4729 27.557H96.5399ZM95.3179 30.365C95.7339 30.365 96.0763 30.3347 96.3449 30.274C96.6223 30.222 96.8303 30.144 96.9689 30.04C97.1076 29.9447 97.1769 29.832 97.1769 29.702C97.1769 29.572 97.1293 29.468 97.0339 29.39C96.9386 29.3207 96.7653 29.286 96.5139 29.286H94.1869C94.0223 29.286 93.8879 29.3293 93.7839 29.416C93.6886 29.5027 93.6409 29.611 93.6409 29.741C93.6409 29.9403 93.7883 30.092 94.0829 30.196C94.3776 30.3087 94.7893 30.365 95.3179 30.365ZM95.3959 22.37C96.0546 22.37 96.6179 22.4567 97.0859 22.63C97.5539 22.8033 97.9093 23.0547 98.1519 23.384C98.4033 23.7047 98.5289 24.1033 98.5289 24.58C98.5289 25.048 98.4033 25.4467 98.1519 25.776C97.9093 26.1053 97.5539 26.3567 97.0859 26.53C96.6179 26.6947 96.0546 26.777 95.3959 26.777C94.3646 26.777 93.5803 26.5863 93.0429 26.205C92.5143 25.8237 92.2499 25.282 92.2499 24.58C92.2499 24.1033 92.3713 23.7047 92.6139 23.384C92.8653 23.0547 93.2249 22.8033 93.6929 22.63C94.1609 22.4567 94.7286 22.37 95.3959 22.37ZM95.3959 23.631C95.1099 23.631 94.8759 23.7133 94.6939 23.878C94.5206 24.0427 94.4339 24.2767 94.4339 24.58C94.4339 24.8747 94.5206 25.1043 94.6939 25.269C94.8759 25.4337 95.1099 25.516 95.3959 25.516C95.6733 25.516 95.9029 25.4337 96.0849 25.269C96.2669 25.1043 96.3579 24.8747 96.3579 24.58C96.3579 24.2767 96.2669 24.0427 96.0849 23.878C95.9029 23.7133 95.6733 23.631 95.3959 23.631ZM100.863 21.746C100.413 21.746 100.083 21.6637 99.8753 21.499C99.676 21.3257 99.5763 21.057 99.5763 20.693C99.5763 20.3203 99.676 20.0517 99.8753 19.887C100.083 19.7137 100.413 19.627 100.863 19.627C101.305 19.627 101.63 19.7137 101.838 19.887C102.046 20.0517 102.15 20.3203 102.15 20.693C102.15 21.057 102.046 21.3257 101.838 21.499C101.63 21.6637 101.305 21.746 100.863 21.746ZM101.968 22.5V29H99.7583V22.5H101.968ZM103.542 29V22.5H105.518L105.635 24.736L105.388 24.489C105.474 24.021 105.626 23.631 105.843 23.319C106.068 23.007 106.345 22.773 106.675 22.617C107.013 22.4523 107.39 22.37 107.806 22.37C108.256 22.37 108.646 22.4567 108.976 22.63C109.314 22.8033 109.578 23.059 109.769 23.397C109.959 23.735 110.055 24.1597 110.055 24.671V29H107.845V25.256C107.845 24.8053 107.758 24.4933 107.585 24.32C107.411 24.1467 107.19 24.06 106.922 24.06C106.714 24.06 106.519 24.112 106.337 24.216C106.155 24.3113 106.012 24.4673 105.908 24.684C105.804 24.9007 105.752 25.191 105.752 25.555V29H103.542ZM114.775 29.13C114.056 29.13 113.432 28.9957 112.903 28.727C112.383 28.4583 111.98 28.0727 111.694 27.57C111.408 27.0673 111.265 26.4607 111.265 25.75C111.265 25.0393 111.408 24.4327 111.694 23.93C111.98 23.4273 112.379 23.0417 112.89 22.773C113.41 22.5043 114.004 22.37 114.671 22.37C115.356 22.37 115.936 22.5043 116.413 22.773C116.898 23.033 117.267 23.397 117.518 23.865C117.769 24.3243 117.895 24.853 117.895 25.451C117.895 25.607 117.891 25.763 117.882 25.919C117.873 26.075 117.86 26.205 117.843 26.309H112.695V25.126H116.868L115.815 25.529C115.815 25.009 115.72 24.6103 115.529 24.333C115.347 24.0557 115.061 23.917 114.671 23.917C114.394 23.917 114.155 23.982 113.956 24.112C113.765 24.242 113.618 24.4457 113.514 24.723C113.419 25.0003 113.371 25.3557 113.371 25.789C113.371 26.2137 113.427 26.5603 113.54 26.829C113.653 27.089 113.813 27.2797 114.021 27.401C114.229 27.5137 114.48 27.57 114.775 27.57C115.104 27.57 115.364 27.505 115.555 27.375C115.754 27.245 115.902 27.063 115.997 26.829L117.765 27.414C117.644 27.7867 117.431 28.103 117.128 28.363C116.833 28.6143 116.478 28.805 116.062 28.935C115.655 29.065 115.226 29.13 114.775 29.13ZM122.303 29.13C121.584 29.13 120.96 28.9957 120.431 28.727C119.911 28.4583 119.508 28.0727 119.222 27.57C118.936 27.0673 118.793 26.4607 118.793 25.75C118.793 25.0393 118.936 24.4327 119.222 23.93C119.508 23.4273 119.907 23.0417 120.418 22.773C120.938 22.5043 121.532 22.37 122.199 22.37C122.884 22.37 123.465 22.5043 123.941 22.773C124.427 23.033 124.795 23.397 125.046 23.865C125.298 24.3243 125.423 24.853 125.423 25.451C125.423 25.607 125.419 25.763 125.41 25.919C125.402 26.075 125.389 26.205 125.371 26.309H120.223V25.126H124.396L123.343 25.529C123.343 25.009 123.248 24.6103 123.057 24.333C122.875 24.0557 122.589 23.917 122.199 23.917C121.922 23.917 121.684 23.982 121.484 24.112C121.294 24.242 121.146 24.4457 121.042 24.723C120.947 25.0003 120.899 25.3557 120.899 25.789C120.899 26.2137 120.956 26.5603 121.068 26.829C121.181 27.089 121.341 27.2797 121.549 27.401C121.757 27.5137 122.009 27.57 122.303 27.57C122.633 27.57 122.893 27.505 123.083 27.375C123.283 27.245 123.43 27.063 123.525 26.829L125.293 27.414C125.172 27.7867 124.96 28.103 124.656 28.363C124.362 28.6143 124.006 28.805 123.59 28.935C123.183 29.065 122.754 29.13 122.303 29.13ZM126.66 29V22.5H128.61L128.701 23.904C128.865 23.4187 129.108 23.0417 129.429 22.773C129.758 22.5043 130.174 22.37 130.677 22.37C130.841 22.37 130.98 22.383 131.093 22.409C131.214 22.435 131.309 22.4697 131.379 22.513L131.158 24.333C131.071 24.2983 130.958 24.2723 130.82 24.255C130.69 24.229 130.529 24.216 130.339 24.216C130.079 24.216 129.836 24.2723 129.611 24.385C129.385 24.4977 129.203 24.6667 129.065 24.892C128.935 25.1087 128.87 25.386 128.87 25.724V29H126.66ZM133.351 21.746C132.9 21.746 132.571 21.6637 132.363 21.499C132.163 21.3257 132.064 21.057 132.064 20.693C132.064 20.3203 132.163 20.0517 132.363 19.887C132.571 19.7137 132.9 19.627 133.351 19.627C133.793 19.627 134.118 19.7137 134.326 19.887C134.534 20.0517 134.638 20.3203 134.638 20.693C134.638 21.057 134.534 21.3257 134.326 21.499C134.118 21.6637 133.793 21.746 133.351 21.746ZM134.456 22.5V29H132.246V22.5H134.456ZM136.029 29V22.5H138.005L138.122 24.736L137.875 24.489C137.962 24.021 138.113 23.631 138.33 23.319C138.555 23.007 138.833 22.773 139.162 22.617C139.5 22.4523 139.877 22.37 140.293 22.37C140.744 22.37 141.134 22.4567 141.463 22.63C141.801 22.8033 142.065 23.059 142.256 23.397C142.447 23.735 142.542 24.1597 142.542 24.671V29H140.332V25.256C140.332 24.8053 140.245 24.4933 140.072 24.32C139.899 24.1467 139.678 24.06 139.409 24.06C139.201 24.06 139.006 24.112 138.824 24.216C138.642 24.3113 138.499 24.4673 138.395 24.684C138.291 24.9007 138.239 25.191 138.239 25.555V29H136.029ZM150.382 20.758L150.564 22.24C150.512 22.2227 150.46 22.214 150.408 22.214C150.356 22.2053 150.304 22.201 150.252 22.201C149.871 22.201 149.585 22.2963 149.394 22.487C149.212 22.669 149.121 22.8987 149.121 23.176L148.341 22.89C148.341 22.5347 148.406 22.1923 148.536 21.863C148.666 21.5337 148.866 21.265 149.134 21.057C149.412 20.849 149.758 20.745 150.174 20.745C150.2 20.745 150.231 20.745 150.265 20.745C150.309 20.745 150.348 20.7493 150.382 20.758ZM148.146 27.557C148.9 27.557 149.477 27.7173 149.875 28.038C150.283 28.35 150.486 28.8007 150.486 29.39C150.486 29.9273 150.339 30.3737 150.044 30.729C149.75 31.0843 149.334 31.3487 148.796 31.522C148.268 31.704 147.639 31.795 146.911 31.795C145.733 31.795 144.883 31.6477 144.363 31.353C143.843 31.0583 143.583 30.6597 143.583 30.157C143.583 29.793 143.731 29.4983 144.025 29.273C144.32 29.0477 144.81 28.9263 145.494 28.909L145.442 29.117C144.914 29.0477 144.519 28.8917 144.259 28.649C143.999 28.4063 143.869 28.077 143.869 27.661C143.869 27.245 144.034 26.907 144.363 26.647C144.693 26.387 145.13 26.244 145.676 26.218L146.482 26.595H146.274C145.936 26.6123 145.698 26.6687 145.559 26.764C145.421 26.8593 145.351 26.9763 145.351 27.115C145.351 27.2623 145.412 27.375 145.533 27.453C145.655 27.5223 145.837 27.557 146.079 27.557H148.146ZM146.924 30.365C147.34 30.365 147.683 30.3347 147.951 30.274C148.229 30.222 148.437 30.144 148.575 30.04C148.714 29.9447 148.783 29.832 148.783 29.702C148.783 29.572 148.736 29.468 148.64 29.39C148.545 29.3207 148.372 29.286 148.12 29.286H145.793C145.629 29.286 145.494 29.3293 145.39 29.416C145.295 29.5027 145.247 29.611 145.247 29.741C145.247 29.9403 145.395 30.092 145.689 30.196C145.984 30.3087 146.396 30.365 146.924 30.365ZM147.002 22.37C147.661 22.37 148.224 22.4567 148.692 22.63C149.16 22.8033 149.516 23.0547 149.758 23.384C150.01 23.7047 150.135 24.1033 150.135 24.58C150.135 25.048 150.01 25.4467 149.758 25.776C149.516 26.1053 149.16 26.3567 148.692 26.53C148.224 26.6947 147.661 26.777 147.002 26.777C145.971 26.777 145.187 26.5863 144.649 26.205C144.121 25.8237 143.856 25.282 143.856 24.58C143.856 24.1033 143.978 23.7047 144.22 23.384C144.472 23.0547 144.831 22.8033 145.299 22.63C145.767 22.4567 146.335 22.37 147.002 22.37ZM147.002 23.631C146.716 23.631 146.482 23.7133 146.3 23.878C146.127 24.0427 146.04 24.2767 146.04 24.58C146.04 24.8747 146.127 25.1043 146.3 25.269C146.482 25.4337 146.716 25.516 147.002 25.516C147.28 25.516 147.509 25.4337 147.691 25.269C147.873 25.1043 147.964 24.8747 147.964 24.58C147.964 24.2767 147.873 24.0427 147.691 23.878C147.509 23.7133 147.28 23.631 147.002 23.631Z" fill="white"/>
</svg>
