<svg width="currentWidth" height="currentHeight" viewBox="0 0 1030 1030" fill="none" xmlns="http://www.w3.org/2000/svg">
<path fill-rule="evenodd" clip-rule="evenodd" d="M0.5 0.5H1029.5V1.5H1025.5V32.5H1029.5V33.5H1025.5V64.5H1029.5V65.5H1025.5V96.5H1029.5V97.5H1025.5V128.5H1029.5V129.5H1025.5V160.5H1029.5V161.5H1025.5V192.5H1029.5V193.5H1025.5V224.5H1029.5V225.5H1025.5V256.5H1029.5V257.5H1025.5V288.5H1029.5V289.5H1025.5V320.5H1029.5V321.5H1025.5V352.5H1029.5V353.5H1025.5V384.5H1029.5V385.5H1025.5V416.5H1029.5V417.5H1025.5V448.5H1029.5V449.5H1025.5V480.5H1029.5V481.5H1025.5V512.5H1029.5V513.5H1025.5V544.5H1029.5V545.5H1025.5V576.5H1029.5V577.5H1025.5V608.5H1029.5V609.5H1025.5V640.5H1029.5V641.5H1025.5V672.5H1029.5V673.5H1025.5V704.5H1029.5V705.5H1025.5V736.5H1029.5V737.5H1025.5V768.5H1029.5V769.5H1025.5V800.5H1029.5V801.5H1025.5V832.5H1029.5V833.5H1025.5V864.5H1029.5V865.5H1025.5V896.5H1029.5V897.5H1025.5V928.5H1029.5V929.5H1025.5V960.5H1029.5V961.5H1025.5V992.5H1029.5V993.5H1025.5V1024.5H1029.5V1025.5H1025.5V1029.5H1024.5V1025.5H993.5V1029.5H992.5V1025.5H961.5V1029.5H960.5V1025.5H929.5V1029.5H928.5V1025.5H897.5V1029.5H896.5V1025.5H865.5V1029.5H864.5V1025.5H833.5V1029.5H832.5V1025.5H801.5V1029.5H800.5V1025.5H769.5V1029.5H768.5V1025.5H737.5V1029.5H736.5V1025.5H705.5V1029.5H704.5V1025.5H673.5V1029.5H672.5V1025.5H641.5V1029.5H640.5V1025.5H609.5V1029.5H608.5V1025.5H577.5V1029.5H576.5V1025.5H545.5V1029.5H544.5V1025.5H513.5V1029.5H512.5V1025.5H481.5V1029.5H480.5V1025.5H449.5V1029.5H448.5V1025.5H417.5V1029.5H416.5V1025.5H385.5V1029.5H384.5V1025.5H353.5V1029.5H352.5V1025.5H321.5V1029.5H320.5V1025.5H289.5V1029.5H288.5V1025.5H257.5V1029.5H256.5V1025.5H225.5V1029.5H224.5V1025.5H193.5V1029.5H192.5V1025.5H161.5V1029.5H160.5V1025.5H129.5V1029.5H128.5V1025.5H97.5V1029.5H96.5V1025.5H65.5V1029.5H64.5V1025.5H33.5V1029.5H32.5V1025.5H1.5V1029.5H0.5V0.5ZM1.5 1024.5H32.5V993.5H1.5V1024.5ZM1.5 992.5H32.5V961.5H1.5V992.5ZM1.5 960.5H32.5V929.5H1.5V960.5ZM1.5 928.5H32.5V897.5H1.5V928.5ZM1.5 896.5H32.5V865.5H1.5V896.5ZM1.5 864.5H32.5V833.5H1.5V864.5ZM1.5 832.5H32.5V801.5H1.5V832.5ZM1.5 800.5H32.5V769.5H1.5V800.5ZM1.5 768.5H32.5V737.5H1.5V768.5ZM1.5 736.5H32.5V705.5H1.5V736.5ZM1.5 704.5H32.5V673.5H1.5V704.5ZM1.5 672.5H32.5V641.5H1.5V672.5ZM1.5 640.5H32.5V609.5H1.5V640.5ZM1.5 608.5H32.5V577.5H1.5V608.5ZM1.5 576.5H32.5V545.5H1.5V576.5ZM1.5 544.5H32.5V513.5H1.5V544.5ZM1.5 512.5H32.5V481.5H1.5V512.5ZM1.5 480.5H32.5V449.5H1.5V480.5ZM1.5 448.5H32.5V417.5H1.5V448.5ZM1.5 416.5H32.5V385.5H1.5V416.5ZM1.5 384.5H32.5V353.5H1.5V384.5ZM1.5 352.5H32.5V321.5H1.5V352.5ZM1.5 320.5H32.5V289.5H1.5V320.5ZM1.5 288.5H32.5V257.5H1.5V288.5ZM1.5 256.5H32.5V225.5H1.5V256.5ZM1.5 224.5H32.5V193.5H1.5V224.5ZM1.5 192.5H32.5V161.5H1.5V192.5ZM1.5 160.5H32.5V129.5H1.5V160.5ZM1.5 128.5H32.5V97.5H1.5V128.5ZM1.5 96.5H32.5V65.5H1.5V96.5ZM1.5 64.5H32.5V33.5H1.5V64.5ZM1.5 32.5H32.5V1.5H1.5V32.5ZM33.5 1.5V32.5H64.5V1.5H33.5ZM65.5 1.5V32.5H96.5V1.5H65.5ZM97.5 1.5V32.5H128.5V1.5H97.5ZM129.5 1.5V32.5H160.5V1.5H129.5ZM161.5 1.5V32.5H192.5V1.5H161.5ZM193.5 1.5V32.5H224.5V1.5H193.5ZM225.5 1.5V32.5H256.5V1.5H225.5ZM257.5 1.5V32.5H288.5V1.5H257.5ZM289.5 1.5V32.5H320.5V1.5H289.5ZM321.5 1.5V32.5H352.5V1.5H321.5ZM353.5 1.5V32.5H384.5V1.5H353.5ZM385.5 1.5V32.5H416.5V1.5H385.5ZM417.5 1.5V32.5H448.5V1.5H417.5ZM449.5 1.5V32.5H480.5V1.5H449.5ZM481.5 1.5V32.5H512.5V1.5H481.5ZM513.5 1.5V32.5H544.5V1.5H513.5ZM545.5 1.5V32.5H576.5V1.5H545.5ZM577.5 1.5V32.5H608.5V1.5H577.5ZM609.5 1.5V32.5H640.5V1.5H609.5ZM641.5 1.5V32.5H672.5V1.5H641.5ZM673.5 1.5V32.5H704.5V1.5H673.5ZM705.5 1.5V32.5H736.5V1.5H705.5ZM737.5 1.5V32.5H768.5V1.5H737.5ZM769.5 1.5V32.5H800.5V1.5H769.5ZM801.5 1.5V32.5H832.5V1.5H801.5ZM833.5 1.5V32.5H864.5V1.5H833.5ZM865.5 1.5V32.5H896.5V1.5H865.5ZM897.5 1.5V32.5H928.5V1.5H897.5ZM929.5 1.5V32.5H960.5V1.5H929.5ZM961.5 1.5V32.5H992.5V1.5H961.5ZM993.5 1.5V32.5H1024.5V1.5H993.5ZM1024.5 33.5H993.5V64.5H1024.5V33.5ZM1024.5 65.5H993.5V96.5H1024.5V65.5ZM1024.5 97.5H993.5V128.5H1024.5V97.5ZM1024.5 129.5H993.5V160.5H1024.5V129.5ZM1024.5 161.5H993.5V192.5H1024.5V161.5ZM1024.5 193.5H993.5V224.5H1024.5V193.5ZM1024.5 225.5H993.5V256.5H1024.5V225.5ZM1024.5 257.5H993.5V288.5H1024.5V257.5ZM1024.5 289.5H993.5V320.5H1024.5V289.5ZM1024.5 321.5H993.5V352.5H1024.5V321.5ZM1024.5 353.5H993.5V384.5H1024.5V353.5ZM1024.5 385.5H993.5V416.5H1024.5V385.5ZM1024.5 417.5H993.5V448.5H1024.5V417.5ZM1024.5 449.5H993.5V480.5H1024.5V449.5ZM1024.5 481.5H993.5V512.5H1024.5V481.5ZM1024.5 513.5H993.5V544.5H1024.5V513.5ZM1024.5 545.5H993.5V576.5H1024.5V545.5ZM1024.5 577.5H993.5V608.5H1024.5V577.5ZM1024.5 609.5H993.5V640.5H1024.5V609.5ZM1024.5 641.5H993.5V672.5H1024.5V641.5ZM1024.5 673.5H993.5V704.5H1024.5V673.5ZM1024.5 705.5H993.5V736.5H1024.5V705.5ZM1024.5 737.5H993.5V768.5H1024.5V737.5ZM1024.5 769.5H993.5V800.5H1024.5V769.5ZM1024.5 801.5H993.5V832.5H1024.5V801.5ZM1024.5 833.5H993.5V864.5H1024.5V833.5ZM1024.5 865.5H993.5V896.5H1024.5V865.5ZM1024.5 897.5H993.5V928.5H1024.5V897.5ZM1024.5 929.5H993.5V960.5H1024.5V929.5ZM1024.5 961.5H993.5V992.5H1024.5V961.5ZM1024.5 993.5H993.5V1024.5H1024.5V993.5ZM992.5 1024.5V993.5H961.5V1024.5H992.5ZM960.5 1024.5V993.5H929.5V1024.5H960.5ZM928.5 1024.5V993.5H897.5V1024.5H928.5ZM896.5 1024.5V993.5H865.5V1024.5H896.5ZM864.5 1024.5V993.5H833.5V1024.5H864.5ZM832.5 1024.5V993.5H801.5V1024.5H832.5ZM800.5 1024.5V993.5H769.5V1024.5H800.5ZM768.5 1024.5V993.5H737.5V1024.5H768.5ZM736.5 1024.5V993.5H705.5V1024.5H736.5ZM704.5 1024.5V993.5H673.5V1024.5H704.5ZM672.5 1024.5V993.5H641.5V1024.5H672.5ZM640.5 1024.5V993.5H609.5V1024.5H640.5ZM608.5 1024.5V993.5H577.5V1024.5H608.5ZM576.5 1024.5V993.5H545.5V1024.5H576.5ZM544.5 1024.5V993.5H513.5V1024.5H544.5ZM512.5 1024.5V993.5H481.5V1024.5H512.5ZM480.5 1024.5V993.5H449.5V1024.5H480.5ZM448.5 1024.5V993.5H417.5V1024.5H448.5ZM416.5 1024.5V993.5H385.5V1024.5H416.5ZM384.5 1024.5V993.5H353.5V1024.5H384.5ZM352.5 1024.5V993.5H321.5V1024.5H352.5ZM320.5 1024.5V993.5H289.5V1024.5H320.5ZM288.5 1024.5V993.5H257.5V1024.5H288.5ZM256.5 1024.5V993.5H225.5V1024.5H256.5ZM224.5 1024.5V993.5H193.5V1024.5H224.5ZM192.5 1024.5V993.5H161.5V1024.5H192.5ZM160.5 1024.5V993.5H129.5V1024.5H160.5ZM128.5 1024.5V993.5H97.5V1024.5H128.5ZM96.5 1024.5V993.5H65.5V1024.5H96.5ZM64.5 1024.5V993.5H33.5V1024.5H64.5ZM33.5 992.5H64.5V961.5H33.5V992.5ZM33.5 960.5H64.5V929.5H33.5V960.5ZM33.5 928.5H64.5V897.5H33.5V928.5ZM33.5 896.5H64.5V865.5H33.5V896.5ZM33.5 864.5H64.5V833.5H33.5V864.5ZM33.5 832.5H64.5V801.5H33.5V832.5ZM33.5 800.5H64.5V769.5H33.5V800.5ZM33.5 768.5H64.5V737.5H33.5V768.5ZM33.5 736.5H64.5V705.5H33.5V736.5ZM33.5 704.5H64.5V673.5H33.5V704.5ZM33.5 672.5H64.5V641.5H33.5V672.5ZM33.5 640.5H64.5V609.5H33.5V640.5ZM33.5 608.5H64.5V577.5H33.5V608.5ZM33.5 576.5H64.5V545.5H33.5V576.5ZM33.5 544.5H64.5V513.5H33.5V544.5ZM33.5 512.5H64.5V481.5H33.5V512.5ZM33.5 480.5H64.5V449.5H33.5V480.5ZM33.5 448.5H64.5V417.5H33.5V448.5ZM33.5 416.5H64.5V385.5H33.5V416.5ZM33.5 384.5H64.5V353.5H33.5V384.5ZM33.5 352.5H64.5V321.5H33.5V352.5ZM33.5 320.5H64.5V289.5H33.5V320.5ZM33.5 288.5H64.5V257.5H33.5V288.5ZM33.5 256.5H64.5V225.5H33.5V256.5ZM33.5 224.5H64.5V193.5H33.5V224.5ZM33.5 192.5H64.5V161.5H33.5V192.5ZM33.5 160.5H64.5V129.5H33.5V160.5ZM33.5 128.5H64.5V97.5H33.5V128.5ZM33.5 96.5H64.5V65.5H33.5V96.5ZM33.5 64.5H64.5V33.5H33.5V64.5ZM65.5 33.5V64.5H96.5V33.5H65.5ZM97.5 33.5V64.5H128.5V33.5H97.5ZM129.5 33.5V64.5H160.5V33.5H129.5ZM161.5 33.5V64.5H192.5V33.5H161.5ZM193.5 33.5V64.5H224.5V33.5H193.5ZM225.5 33.5V64.5H256.5V33.5H225.5ZM257.5 33.5V64.5H288.5V33.5H257.5ZM289.5 33.5V64.5H320.5V33.5H289.5ZM321.5 33.5V64.5H352.5V33.5H321.5ZM353.5 33.5V64.5H384.5V33.5H353.5ZM385.5 33.5V64.5H416.5V33.5H385.5ZM417.5 33.5V64.5H448.5V33.5H417.5ZM449.5 33.5V64.5H480.5V33.5H449.5ZM481.5 33.5V64.5H512.5V33.5H481.5ZM513.5 33.5V64.5H544.5V33.5H513.5ZM545.5 33.5V64.5H576.5V33.5H545.5ZM577.5 33.5V64.5H608.5V33.5H577.5ZM609.5 33.5V64.5H640.5V33.5H609.5ZM641.5 33.5V64.5H672.5V33.5H641.5ZM673.5 33.5V64.5H704.5V33.5H673.5ZM705.5 33.5V64.5H736.5V33.5H705.5ZM737.5 33.5V64.5H768.5V33.5H737.5ZM769.5 33.5V64.5H800.5V33.5H769.5ZM801.5 33.5V64.5H832.5V33.5H801.5ZM833.5 33.5V64.5H864.5V33.5H833.5ZM865.5 33.5V64.5H896.5V33.5H865.5ZM897.5 33.5V64.5H928.5V33.5H897.5ZM929.5 33.5V64.5H960.5V33.5H929.5ZM961.5 33.5V64.5H992.5V33.5H961.5ZM992.5 65.5H961.5V96.5H992.5V65.5ZM992.5 97.5H961.5V128.5H992.5V97.5ZM992.5 129.5H961.5V160.5H992.5V129.5ZM992.5 161.5H961.5V192.5H992.5V161.5ZM992.5 193.5H961.5V224.5H992.5V193.5ZM992.5 225.5H961.5V256.5H992.5V225.5ZM992.5 257.5H961.5V288.5H992.5V257.5ZM992.5 289.5H961.5V320.5H992.5V289.5ZM992.5 321.5H961.5V352.5H992.5V321.5ZM992.5 353.5H961.5V384.5H992.5V353.5ZM992.5 385.5H961.5V416.5H992.5V385.5ZM992.5 417.5H961.5V448.5H992.5V417.5ZM992.5 449.5H961.5V480.5H992.5V449.5ZM992.5 481.5H961.5V512.5H992.5V481.5ZM992.5 513.5H961.5V544.5H992.5V513.5ZM992.5 545.5H961.5V576.5H992.5V545.5ZM992.5 577.5H961.5V608.5H992.5V577.5ZM992.5 609.5H961.5V640.5H992.5V609.5ZM992.5 641.5H961.5V672.5H992.5V641.5ZM992.5 673.5H961.5V704.5H992.5V673.5ZM992.5 705.5H961.5V736.5H992.5V705.5ZM992.5 737.5H961.5V768.5H992.5V737.5ZM992.5 769.5H961.5V800.5H992.5V769.5ZM992.5 801.5H961.5V832.5H992.5V801.5ZM992.5 833.5H961.5V864.5H992.5V833.5ZM992.5 865.5H961.5V896.5H992.5V865.5ZM992.5 897.5H961.5V928.5H992.5V897.5ZM992.5 929.5H961.5V960.5H992.5V929.5ZM992.5 961.5H961.5V992.5H992.5V961.5ZM960.5 992.5V961.5H929.5V992.5H960.5ZM928.5 992.5V961.5H897.5V992.5H928.5ZM896.5 992.5V961.5H865.5V992.5H896.5ZM864.5 992.5V961.5H833.5V992.5H864.5ZM832.5 992.5V961.5H801.5V992.5H832.5ZM800.5 992.5V961.5H769.5V992.5H800.5ZM768.5 992.5V961.5H737.5V992.5H768.5ZM736.5 992.5V961.5H705.5V992.5H736.5ZM704.5 992.5V961.5H673.5V992.5H704.5ZM672.5 992.5V961.5H641.5V992.5H672.5ZM640.5 992.5V961.5H609.5V992.5H640.5ZM608.5 992.5V961.5H577.5V992.5H608.5ZM576.5 992.5V961.5H545.5V992.5H576.5ZM544.5 992.5V961.5H513.5V992.5H544.5ZM512.5 992.5V961.5H481.5V992.5H512.5ZM480.5 992.5V961.5H449.5V992.5H480.5ZM448.5 992.5V961.5H417.5V992.5H448.5ZM416.5 992.5V961.5H385.5V992.5H416.5ZM384.5 992.5V961.5H353.5V992.5H384.5ZM352.5 992.5V961.5H321.5V992.5H352.5ZM320.5 992.5V961.5H289.5V992.5H320.5ZM288.5 992.5V961.5H257.5V992.5H288.5ZM256.5 992.5V961.5H225.5V992.5H256.5ZM224.5 992.5V961.5H193.5V992.5H224.5ZM192.5 992.5V961.5H161.5V992.5H192.5ZM160.5 992.5V961.5H129.5V992.5H160.5ZM128.5 992.5V961.5H97.5V992.5H128.5ZM96.5 992.5V961.5H65.5V992.5H96.5ZM65.5 960.5H96.5V929.5H65.5V960.5ZM65.5 928.5H96.5V897.5H65.5V928.5ZM65.5 896.5H96.5V865.5H65.5V896.5ZM65.5 864.5H96.5V833.5H65.5V864.5ZM65.5 832.5H96.5V801.5H65.5V832.5ZM65.5 800.5H96.5V769.5H65.5V800.5ZM65.5 768.5H96.5V737.5H65.5V768.5ZM65.5 736.5H96.5V705.5H65.5V736.5ZM65.5 704.5H96.5V673.5H65.5V704.5ZM65.5 672.5H96.5V641.5H65.5V672.5ZM65.5 640.5H96.5V609.5H65.5V640.5ZM65.5 608.5H96.5V577.5H65.5V608.5ZM65.5 576.5H96.5V545.5H65.5V576.5ZM65.5 544.5H96.5V513.5H65.5V544.5ZM65.5 512.5H96.5V481.5H65.5V512.5ZM65.5 480.5H96.5V449.5H65.5V480.5ZM65.5 448.5H96.5V417.5H65.5V448.5ZM65.5 416.5H96.5V385.5H65.5V416.5ZM65.5 384.5H96.5V353.5H65.5V384.5ZM65.5 352.5H96.5V321.5H65.5V352.5ZM65.5 320.5H96.5V289.5H65.5V320.5ZM65.5 288.5H96.5V257.5H65.5V288.5ZM65.5 256.5H96.5V225.5H65.5V256.5ZM65.5 224.5H96.5V193.5H65.5V224.5ZM65.5 192.5H96.5V161.5H65.5V192.5ZM65.5 160.5H96.5V129.5H65.5V160.5ZM65.5 128.5H96.5V97.5H65.5V128.5ZM65.5 96.5H96.5V65.5H65.5V96.5ZM97.5 65.5V96.5H128.5V65.5H97.5ZM129.5 65.5V96.5H160.5V65.5H129.5ZM161.5 65.5V96.5H192.5V65.5H161.5ZM193.5 65.5V96.5H224.5V65.5H193.5ZM225.5 65.5V96.5H256.5V65.5H225.5ZM257.5 65.5V96.5H288.5V65.5H257.5ZM289.5 65.5V96.5H320.5V65.5H289.5ZM321.5 65.5V96.5H352.5V65.5H321.5ZM353.5 65.5V96.5H384.5V65.5H353.5ZM385.5 65.5V96.5H416.5V65.5H385.5ZM417.5 65.5V96.5H448.5V65.5H417.5ZM449.5 65.5V96.5H480.5V65.5H449.5ZM481.5 65.5V96.5H512.5V65.5H481.5ZM513.5 65.5V96.5H544.5V65.5H513.5ZM545.5 65.5V96.5H576.5V65.5H545.5ZM577.5 65.5V96.5H608.5V65.5H577.5ZM609.5 65.5V96.5H640.5V65.5H609.5ZM641.5 65.5V96.5H672.5V65.5H641.5ZM673.5 65.5V96.5H704.5V65.5H673.5ZM705.5 65.5V96.5H736.5V65.5H705.5ZM737.5 65.5V96.5H768.5V65.5H737.5ZM769.5 65.5V96.5H800.5V65.5H769.5ZM801.5 65.5V96.5H832.5V65.5H801.5ZM833.5 65.5V96.5H864.5V65.5H833.5ZM865.5 65.5V96.5H896.5V65.5H865.5ZM897.5 65.5V96.5H928.5V65.5H897.5ZM929.5 65.5V96.5H960.5V65.5H929.5ZM960.5 97.5H929.5V128.5H960.5V97.5ZM960.5 129.5H929.5V160.5H960.5V129.5ZM960.5 161.5H929.5V192.5H960.5V161.5ZM960.5 193.5H929.5V224.5H960.5V193.5ZM960.5 225.5H929.5V256.5H960.5V225.5ZM960.5 257.5H929.5V288.5H960.5V257.5ZM960.5 289.5H929.5V320.5H960.5V289.5ZM960.5 321.5H929.5V352.5H960.5V321.5ZM960.5 353.5H929.5V384.5H960.5V353.5ZM960.5 385.5H929.5V416.5H960.5V385.5ZM960.5 417.5H929.5V448.5H960.5V417.5ZM960.5 449.5H929.5V480.5H960.5V449.5ZM960.5 481.5H929.5V512.5H960.5V481.5ZM960.5 513.5H929.5V544.5H960.5V513.5ZM960.5 545.5H929.5V576.5H960.5V545.5ZM960.5 577.5H929.5V608.5H960.5V577.5ZM960.5 609.5H929.5V640.5H960.5V609.5ZM960.5 641.5H929.5V672.5H960.5V641.5ZM960.5 673.5H929.5V704.5H960.5V673.5ZM960.5 705.5H929.5V736.5H960.5V705.5ZM960.5 737.5H929.5V768.5H960.5V737.5ZM960.5 769.5H929.5V800.5H960.5V769.5ZM960.5 801.5H929.5V832.5H960.5V801.5ZM960.5 833.5H929.5V864.5H960.5V833.5ZM960.5 865.5H929.5V896.5H960.5V865.5ZM960.5 897.5H929.5V928.5H960.5V897.5ZM960.5 929.5H929.5V960.5H960.5V929.5ZM928.5 960.5V929.5H897.5V960.5H928.5ZM896.5 960.5V929.5H865.5V960.5H896.5ZM864.5 960.5V929.5H833.5V960.5H864.5ZM832.5 960.5V929.5H801.5V960.5H832.5ZM800.5 960.5V929.5H769.5V960.5H800.5ZM768.5 960.5V929.5H737.5V960.5H768.5ZM736.5 960.5V929.5H705.5V960.5H736.5ZM704.5 960.5V929.5H673.5V960.5H704.5ZM672.5 960.5V929.5H641.5V960.5H672.5ZM640.5 960.5V929.5H609.5V960.5H640.5ZM608.5 960.5V929.5H577.5V960.5H608.5ZM576.5 960.5V929.5H545.5V960.5H576.5ZM544.5 960.5V929.5H513.5V960.5H544.5ZM512.5 960.5V929.5H481.5V960.5H512.5ZM480.5 960.5V929.5H449.5V960.5H480.5ZM448.5 960.5V929.5H417.5V960.5H448.5ZM416.5 960.5V929.5H385.5V960.5H416.5ZM384.5 960.5V929.5H353.5V960.5H384.5ZM352.5 960.5V929.5H321.5V960.5H352.5ZM320.5 960.5V929.5H289.5V960.5H320.5ZM288.5 960.5V929.5H257.5V960.5H288.5ZM256.5 960.5V929.5H225.5V960.5H256.5ZM224.5 960.5V929.5H193.5V960.5H224.5ZM192.5 960.5V929.5H161.5V960.5H192.5ZM160.5 960.5V929.5H129.5V960.5H160.5ZM128.5 960.5V929.5H97.5V960.5H128.5ZM97.5 928.5H128.5V897.5H97.5V928.5ZM97.5 896.5H128.5V865.5H97.5V896.5ZM97.5 864.5H128.5V833.5H97.5V864.5ZM97.5 832.5H128.5V801.5H97.5V832.5ZM97.5 800.5H128.5V769.5H97.5V800.5ZM97.5 768.5H128.5V737.5H97.5V768.5ZM97.5 736.5H128.5V705.5H97.5V736.5ZM97.5 704.5H128.5V673.5H97.5V704.5ZM97.5 672.5H128.5V641.5H97.5V672.5ZM97.5 640.5H128.5V609.5H97.5V640.5ZM97.5 608.5H128.5V577.5H97.5V608.5ZM97.5 576.5H128.5V545.5H97.5V576.5ZM97.5 544.5H128.5V513.5H97.5V544.5ZM97.5 512.5H128.5V481.5H97.5V512.5ZM97.5 480.5H128.5V449.5H97.5V480.5ZM97.5 448.5H128.5V417.5H97.5V448.5ZM97.5 416.5H128.5V385.5H97.5V416.5ZM97.5 384.5H128.5V353.5H97.5V384.5ZM97.5 352.5H128.5V321.5H97.5V352.5ZM97.5 320.5H128.5V289.5H97.5V320.5ZM97.5 288.5H128.5V257.5H97.5V288.5ZM97.5 256.5H128.5V225.5H97.5V256.5ZM97.5 224.5H128.5V193.5H97.5V224.5ZM97.5 192.5H128.5V161.5H97.5V192.5ZM97.5 160.5H128.5V129.5H97.5V160.5ZM97.5 128.5H128.5V97.5H97.5V128.5ZM129.5 97.5V128.5H160.5V97.5H129.5ZM161.5 97.5V128.5H192.5V97.5H161.5ZM193.5 97.5V128.5H224.5V97.5H193.5ZM225.5 97.5V128.5H256.5V97.5H225.5ZM257.5 97.5V128.5H288.5V97.5H257.5ZM289.5 97.5V128.5H320.5V97.5H289.5ZM321.5 97.5V128.5H352.5V97.5H321.5ZM353.5 97.5V128.5H384.5V97.5H353.5ZM385.5 97.5V128.5H416.5V97.5H385.5ZM417.5 97.5V128.5H448.5V97.5H417.5ZM449.5 97.5V128.5H480.5V97.5H449.5ZM481.5 97.5V128.5H512.5V97.5H481.5ZM513.5 97.5V128.5H544.5V97.5H513.5ZM545.5 97.5V128.5H576.5V97.5H545.5ZM577.5 97.5V128.5H608.5V97.5H577.5ZM609.5 97.5V128.5H640.5V97.5H609.5ZM641.5 97.5V128.5H672.5V97.5H641.5ZM673.5 97.5V128.5H704.5V97.5H673.5ZM705.5 97.5V128.5H736.5V97.5H705.5ZM737.5 97.5V128.5H768.5V97.5H737.5ZM769.5 97.5V128.5H800.5V97.5H769.5ZM801.5 97.5V128.5H832.5V97.5H801.5ZM833.5 97.5V128.5H864.5V97.5H833.5ZM865.5 97.5V128.5H896.5V97.5H865.5ZM897.5 97.5V128.5H928.5V97.5H897.5ZM928.5 129.5H897.5V160.5H928.5V129.5ZM928.5 161.5H897.5V192.5H928.5V161.5ZM928.5 193.5H897.5V224.5H928.5V193.5ZM928.5 225.5H897.5V256.5H928.5V225.5ZM928.5 257.5H897.5V288.5H928.5V257.5ZM928.5 289.5H897.5V320.5H928.5V289.5ZM928.5 321.5H897.5V352.5H928.5V321.5ZM928.5 353.5H897.5V384.5H928.5V353.5ZM928.5 385.5H897.5V416.5H928.5V385.5ZM928.5 417.5H897.5V448.5H928.5V417.5ZM928.5 449.5H897.5V480.5H928.5V449.5ZM928.5 481.5H897.5V512.5H928.5V481.5ZM928.5 513.5H897.5V544.5H928.5V513.5ZM928.5 545.5H897.5V576.5H928.5V545.5ZM928.5 577.5H897.5V608.5H928.5V577.5ZM928.5 609.5H897.5V640.5H928.5V609.5ZM928.5 641.5H897.5V672.5H928.5V641.5ZM928.5 673.5H897.5V704.5H928.5V673.5ZM928.5 705.5H897.5V736.5H928.5V705.5ZM928.5 737.5H897.5V768.5H928.5V737.5ZM928.5 769.5H897.5V800.5H928.5V769.5ZM928.5 801.5H897.5V832.5H928.5V801.5ZM928.5 833.5H897.5V864.5H928.5V833.5ZM928.5 865.5H897.5V896.5H928.5V865.5ZM928.5 897.5H897.5V928.5H928.5V897.5ZM896.5 928.5V897.5H865.5V928.5H896.5ZM864.5 928.5V897.5H833.5V928.5H864.5ZM832.5 928.5V897.5H801.5V928.5H832.5ZM800.5 928.5V897.5H769.5V928.5H800.5ZM768.5 928.5V897.5H737.5V928.5H768.5ZM736.5 928.5V897.5H705.5V928.5H736.5ZM704.5 928.5V897.5H673.5V928.5H704.5ZM672.5 928.5V897.5H641.5V928.5H672.5ZM640.5 928.5V897.5H609.5V928.5H640.5ZM608.5 928.5V897.5H577.5V928.5H608.5ZM576.5 928.5V897.5H545.5V928.5H576.5ZM544.5 928.5V897.5H513.5V928.5H544.5ZM512.5 928.5V897.5H481.5V928.5H512.5ZM480.5 928.5V897.5H449.5V928.5H480.5ZM448.5 928.5V897.5H417.5V928.5H448.5ZM416.5 928.5V897.5H385.5V928.5H416.5ZM384.5 928.5V897.5H353.5V928.5H384.5ZM352.5 928.5V897.5H321.5V928.5H352.5ZM320.5 928.5V897.5H289.5V928.5H320.5ZM288.5 928.5V897.5H257.5V928.5H288.5ZM256.5 928.5V897.5H225.5V928.5H256.5ZM224.5 928.5V897.5H193.5V928.5H224.5ZM192.5 928.5V897.5H161.5V928.5H192.5ZM160.5 928.5V897.5H129.5V928.5H160.5ZM129.5 896.5H160.5V865.5H129.5V896.5ZM129.5 864.5H160.5V833.5H129.5V864.5ZM129.5 832.5H160.5V801.5H129.5V832.5ZM129.5 800.5H160.5V769.5H129.5V800.5ZM129.5 768.5H160.5V737.5H129.5V768.5ZM129.5 736.5H160.5V705.5H129.5V736.5ZM129.5 704.5H160.5V673.5H129.5V704.5ZM129.5 672.5H160.5V641.5H129.5V672.5ZM129.5 640.5H160.5V609.5H129.5V640.5ZM129.5 608.5H160.5V577.5H129.5V608.5ZM129.5 576.5H160.5V545.5H129.5V576.5ZM129.5 544.5H160.5V513.5H129.5V544.5ZM129.5 512.5H160.5V481.5H129.5V512.5ZM129.5 480.5H160.5V449.5H129.5V480.5ZM129.5 448.5H160.5V417.5H129.5V448.5ZM129.5 416.5H160.5V385.5H129.5V416.5ZM129.5 384.5H160.5V353.5H129.5V384.5ZM129.5 352.5H160.5V321.5H129.5V352.5ZM129.5 320.5H160.5V289.5H129.5V320.5ZM129.5 288.5H160.5V257.5H129.5V288.5ZM129.5 256.5H160.5V225.5H129.5V256.5ZM129.5 224.5H160.5V193.5H129.5V224.5ZM129.5 192.5H160.5V161.5H129.5V192.5ZM129.5 160.5H160.5V129.5H129.5V160.5ZM161.5 129.5V160.5H192.5V129.5H161.5ZM193.5 129.5V160.5H224.5V129.5H193.5ZM225.5 129.5V160.5H256.5V129.5H225.5ZM257.5 129.5V160.5H288.5V129.5H257.5ZM289.5 129.5V160.5H320.5V129.5H289.5ZM321.5 129.5V160.5H352.5V129.5H321.5ZM353.5 129.5V160.5H384.5V129.5H353.5ZM385.5 129.5V160.5H416.5V129.5H385.5ZM417.5 129.5V160.5H448.5V129.5H417.5ZM449.5 129.5V160.5H480.5V129.5H449.5ZM481.5 129.5V160.5H512.5V129.5H481.5ZM513.5 129.5V160.5H544.5V129.5H513.5ZM545.5 129.5V160.5H576.5V129.5H545.5ZM577.5 129.5V160.5H608.5V129.5H577.5ZM609.5 129.5V160.5H640.5V129.5H609.5ZM641.5 129.5V160.5H672.5V129.5H641.5ZM673.5 129.5V160.5H704.5V129.5H673.5ZM705.5 129.5V160.5H736.5V129.5H705.5ZM737.5 129.5V160.5H768.5V129.5H737.5ZM769.5 129.5V160.5H800.5V129.5H769.5ZM801.5 129.5V160.5H832.5V129.5H801.5ZM833.5 129.5V160.5H864.5V129.5H833.5ZM865.5 129.5V160.5H896.5V129.5H865.5ZM896.5 161.5H865.5V192.5H896.5V161.5ZM896.5 193.5H865.5V224.5H896.5V193.5ZM896.5 225.5H865.5V256.5H896.5V225.5ZM896.5 257.5H865.5V288.5H896.5V257.5ZM896.5 289.5H865.5V320.5H896.5V289.5ZM896.5 321.5H865.5V352.5H896.5V321.5ZM896.5 353.5H865.5V384.5H896.5V353.5ZM896.5 385.5H865.5V416.5H896.5V385.5ZM896.5 417.5H865.5V448.5H896.5V417.5ZM896.5 449.5H865.5V480.5H896.5V449.5ZM896.5 481.5H865.5V512.5H896.5V481.5ZM896.5 513.5H865.5V544.5H896.5V513.5ZM896.5 545.5H865.5V576.5H896.5V545.5ZM896.5 577.5H865.5V608.5H896.5V577.5ZM896.5 609.5H865.5V640.5H896.5V609.5ZM896.5 641.5H865.5V672.5H896.5V641.5ZM896.5 673.5H865.5V704.5H896.5V673.5ZM896.5 705.5H865.5V736.5H896.5V705.5ZM896.5 737.5H865.5V768.5H896.5V737.5ZM896.5 769.5H865.5V800.5H896.5V769.5ZM896.5 801.5H865.5V832.5H896.5V801.5ZM896.5 833.5H865.5V864.5H896.5V833.5ZM896.5 865.5H865.5V896.5H896.5V865.5ZM864.5 896.5V865.5H833.5V896.5H864.5ZM832.5 896.5V865.5H801.5V896.5H832.5ZM800.5 896.5V865.5H769.5V896.5H800.5ZM768.5 896.5V865.5H737.5V896.5H768.5ZM736.5 896.5V865.5H705.5V896.5H736.5ZM704.5 896.5V865.5H673.5V896.5H704.5ZM672.5 896.5V865.5H641.5V896.5H672.5ZM640.5 896.5V865.5H609.5V896.5H640.5ZM608.5 896.5V865.5H577.5V896.5H608.5ZM576.5 896.5V865.5H545.5V896.5H576.5ZM544.5 896.5V865.5H513.5V896.5H544.5ZM512.5 896.5V865.5H481.5V896.5H512.5ZM480.5 896.5V865.5H449.5V896.5H480.5ZM448.5 896.5V865.5H417.5V896.5H448.5ZM416.5 896.5V865.5H385.5V896.5H416.5ZM384.5 896.5V865.5H353.5V896.5H384.5ZM352.5 896.5V865.5H321.5V896.5H352.5ZM320.5 896.5V865.5H289.5V896.5H320.5ZM288.5 896.5V865.5H257.5V896.5H288.5ZM256.5 896.5V865.5H225.5V896.5H256.5ZM224.5 896.5V865.5H193.5V896.5H224.5ZM192.5 896.5V865.5H161.5V896.5H192.5ZM161.5 864.5H192.5V833.5H161.5V864.5ZM161.5 832.5H192.5V801.5H161.5V832.5ZM161.5 800.5H192.5V769.5H161.5V800.5ZM161.5 768.5H192.5V737.5H161.5V768.5ZM161.5 736.5H192.5V705.5H161.5V736.5ZM161.5 704.5H192.5V673.5H161.5V704.5ZM161.5 672.5H192.5V641.5H161.5V672.5ZM161.5 640.5H192.5V609.5H161.5V640.5ZM161.5 608.5H192.5V577.5H161.5V608.5ZM161.5 576.5H192.5V545.5H161.5V576.5ZM161.5 544.5H192.5V513.5H161.5V544.5ZM161.5 512.5H192.5V481.5H161.5V512.5ZM161.5 480.5H192.5V449.5H161.5V480.5ZM161.5 448.5H192.5V417.5H161.5V448.5ZM161.5 416.5H192.5V385.5H161.5V416.5ZM161.5 384.5H192.5V353.5H161.5V384.5ZM161.5 352.5H192.5V321.5H161.5V352.5ZM161.5 320.5H192.5V289.5H161.5V320.5ZM161.5 288.5H192.5V257.5H161.5V288.5ZM161.5 256.5H192.5V225.5H161.5V256.5ZM161.5 224.5H192.5V193.5H161.5V224.5ZM161.5 192.5H192.5V161.5H161.5V192.5ZM193.5 161.5V192.5H224.5V161.5H193.5ZM225.5 161.5V192.5H256.5V161.5H225.5ZM257.5 161.5V192.5H288.5V161.5H257.5ZM289.5 161.5V192.5H320.5V161.5H289.5ZM321.5 161.5V192.5H352.5V161.5H321.5ZM353.5 161.5V192.5H384.5V161.5H353.5ZM385.5 161.5V192.5H416.5V161.5H385.5ZM417.5 161.5V192.5H448.5V161.5H417.5ZM449.5 161.5V192.5H480.5V161.5H449.5ZM481.5 161.5V192.5H512.5V161.5H481.5ZM513.5 161.5V192.5H544.5V161.5H513.5ZM545.5 161.5V192.5H576.5V161.5H545.5ZM577.5 161.5V192.5H608.5V161.5H577.5ZM609.5 161.5V192.5H640.5V161.5H609.5ZM641.5 161.5V192.5H672.5V161.5H641.5ZM673.5 161.5V192.5H704.5V161.5H673.5ZM705.5 161.5V192.5H736.5V161.5H705.5ZM737.5 161.5V192.5H768.5V161.5H737.5ZM769.5 161.5V192.5H800.5V161.5H769.5ZM801.5 161.5V192.5H832.5V161.5H801.5ZM833.5 161.5V192.5H864.5V161.5H833.5ZM864.5 193.5H833.5V224.5H864.5V193.5ZM864.5 225.5H833.5V256.5H864.5V225.5ZM864.5 257.5H833.5V288.5H864.5V257.5ZM864.5 289.5H833.5V320.5H864.5V289.5ZM864.5 321.5H833.5V352.5H864.5V321.5ZM864.5 353.5H833.5V384.5H864.5V353.5ZM864.5 385.5H833.5V416.5H864.5V385.5ZM864.5 417.5H833.5V448.5H864.5V417.5ZM864.5 449.5H833.5V480.5H864.5V449.5ZM864.5 481.5H833.5V512.5H864.5V481.5ZM864.5 513.5H833.5V544.5H864.5V513.5ZM864.5 545.5H833.5V576.5H864.5V545.5ZM864.5 577.5H833.5V608.5H864.5V577.5ZM864.5 609.5H833.5V640.5H864.5V609.5ZM864.5 641.5H833.5V672.5H864.5V641.5ZM864.5 673.5H833.5V704.5H864.5V673.5ZM864.5 705.5H833.5V736.5H864.5V705.5ZM864.5 737.5H833.5V768.5H864.5V737.5ZM864.5 769.5H833.5V800.5H864.5V769.5ZM864.5 801.5H833.5V832.5H864.5V801.5ZM864.5 833.5H833.5V864.5H864.5V833.5ZM832.5 864.5V833.5H801.5V864.5H832.5ZM800.5 864.5V833.5H769.5V864.5H800.5ZM768.5 864.5V833.5H737.5V864.5H768.5ZM736.5 864.5V833.5H705.5V864.5H736.5ZM704.5 864.5V833.5H673.5V864.5H704.5ZM672.5 864.5V833.5H641.5V864.5H672.5ZM640.5 864.5V833.5H609.5V864.5H640.5ZM608.5 864.5V833.5H577.5V864.5H608.5ZM576.5 864.5V833.5H545.5V864.5H576.5ZM544.5 864.5V833.5H513.5V864.5H544.5ZM512.5 864.5V833.5H481.5V864.5H512.5ZM480.5 864.5V833.5H449.5V864.5H480.5ZM448.5 864.5V833.5H417.5V864.5H448.5ZM416.5 864.5V833.5H385.5V864.5H416.5ZM384.5 864.5V833.5H353.5V864.5H384.5ZM352.5 864.5V833.5H321.5V864.5H352.5ZM320.5 864.5V833.5H289.5V864.5H320.5ZM288.5 864.5V833.5H257.5V864.5H288.5ZM256.5 864.5V833.5H225.5V864.5H256.5ZM224.5 864.5V833.5H193.5V864.5H224.5ZM193.5 832.5H224.5V801.5H193.5V832.5ZM193.5 800.5H224.5V769.5H193.5V800.5ZM193.5 768.5H224.5V737.5H193.5V768.5ZM193.5 736.5H224.5V705.5H193.5V736.5ZM193.5 704.5H224.5V673.5H193.5V704.5ZM193.5 672.5H224.5V641.5H193.5V672.5ZM193.5 640.5H224.5V609.5H193.5V640.5ZM193.5 608.5H224.5V577.5H193.5V608.5ZM193.5 576.5H224.5V545.5H193.5V576.5ZM193.5 544.5H224.5V513.5H193.5V544.5ZM193.5 512.5H224.5V481.5H193.5V512.5ZM193.5 480.5H224.5V449.5H193.5V480.5ZM193.5 448.5H224.5V417.5H193.5V448.5ZM193.5 416.5H224.5V385.5H193.5V416.5ZM193.5 384.5H224.5V353.5H193.5V384.5ZM193.5 352.5H224.5V321.5H193.5V352.5ZM193.5 320.5H224.5V289.5H193.5V320.5ZM193.5 288.5H224.5V257.5H193.5V288.5ZM193.5 256.5H224.5V225.5H193.5V256.5ZM193.5 224.5H224.5V193.5H193.5V224.5ZM225.5 193.5V224.5H256.5V193.5H225.5ZM257.5 193.5V224.5H288.5V193.5H257.5ZM289.5 193.5V224.5H320.5V193.5H289.5ZM321.5 193.5V224.5H352.5V193.5H321.5ZM353.5 193.5V224.5H384.5V193.5H353.5ZM385.5 193.5V224.5H416.5V193.5H385.5ZM417.5 193.5V224.5H448.5V193.5H417.5ZM449.5 193.5V224.5H480.5V193.5H449.5ZM481.5 193.5V224.5H512.5V193.5H481.5ZM513.5 193.5V224.5H544.5V193.5H513.5ZM545.5 193.5V224.5H576.5V193.5H545.5ZM577.5 193.5V224.5H608.5V193.5H577.5ZM609.5 193.5V224.5H640.5V193.5H609.5ZM641.5 193.5V224.5H672.5V193.5H641.5ZM673.5 193.5V224.5H704.5V193.5H673.5ZM705.5 193.5V224.5H736.5V193.5H705.5ZM737.5 193.5V224.5H768.5V193.5H737.5ZM769.5 193.5V224.5H800.5V193.5H769.5ZM801.5 193.5V224.5H832.5V193.5H801.5ZM832.5 225.5H801.5V256.5H832.5V225.5ZM832.5 257.5H801.5V288.5H832.5V257.5ZM832.5 289.5H801.5V320.5H832.5V289.5ZM832.5 321.5H801.5V352.5H832.5V321.5ZM832.5 353.5H801.5V384.5H832.5V353.5ZM832.5 385.5H801.5V416.5H832.5V385.5ZM832.5 417.5H801.5V448.5H832.5V417.5ZM832.5 449.5H801.5V480.5H832.5V449.5ZM832.5 481.5H801.5V512.5H832.5V481.5ZM832.5 513.5H801.5V544.5H832.5V513.5ZM832.5 545.5H801.5V576.5H832.5V545.5ZM832.5 577.5H801.5V608.5H832.5V577.5ZM832.5 609.5H801.5V640.5H832.5V609.5ZM832.5 641.5H801.5V672.5H832.5V641.5ZM832.5 673.5H801.5V704.5H832.5V673.5ZM832.5 705.5H801.5V736.5H832.5V705.5ZM832.5 737.5H801.5V768.5H832.5V737.5ZM832.5 769.5H801.5V800.5H832.5V769.5ZM832.5 801.5H801.5V832.5H832.5V801.5ZM800.5 832.5V801.5H769.5V832.5H800.5ZM768.5 832.5V801.5H737.5V832.5H768.5ZM736.5 832.5V801.5H705.5V832.5H736.5ZM704.5 832.5V801.5H673.5V832.5H704.5ZM672.5 832.5V801.5H641.5V832.5H672.5ZM640.5 832.5V801.5H609.5V832.5H640.5ZM608.5 832.5V801.5H577.5V832.5H608.5ZM576.5 832.5V801.5H545.5V832.5H576.5ZM544.5 832.5V801.5H513.5V832.5H544.5ZM512.5 832.5V801.5H481.5V832.5H512.5ZM480.5 832.5V801.5H449.5V832.5H480.5ZM448.5 832.5V801.5H417.5V832.5H448.5ZM416.5 832.5V801.5H385.5V832.5H416.5ZM384.5 832.5V801.5H353.5V832.5H384.5ZM352.5 832.5V801.5H321.5V832.5H352.5ZM320.5 832.5V801.5H289.5V832.5H320.5ZM288.5 832.5V801.5H257.5V832.5H288.5ZM256.5 832.5V801.5H225.5V832.5H256.5ZM225.5 800.5H256.5V769.5H225.5V800.5ZM225.5 768.5H256.5V737.5H225.5V768.5ZM225.5 736.5H256.5V705.5H225.5V736.5ZM225.5 704.5H256.5V673.5H225.5V704.5ZM225.5 672.5H256.5V641.5H225.5V672.5ZM225.5 640.5H256.5V609.5H225.5V640.5ZM225.5 608.5H256.5V577.5H225.5V608.5ZM225.5 576.5H256.5V545.5H225.5V576.5ZM225.5 544.5H256.5V513.5H225.5V544.5ZM225.5 512.5H256.5V481.5H225.5V512.5ZM225.5 480.5H256.5V449.5H225.5V480.5ZM225.5 448.5H256.5V417.5H225.5V448.5ZM225.5 416.5H256.5V385.5H225.5V416.5ZM225.5 384.5H256.5V353.5H225.5V384.5ZM225.5 352.5H256.5V321.5H225.5V352.5ZM225.5 320.5H256.5V289.5H225.5V320.5ZM225.5 288.5H256.5V257.5H225.5V288.5ZM225.5 256.5H256.5V225.5H225.5V256.5ZM257.5 225.5V256.5H288.5V225.5H257.5ZM289.5 225.5V256.5H320.5V225.5H289.5ZM321.5 225.5V256.5H352.5V225.5H321.5ZM353.5 225.5V256.5H384.5V225.5H353.5ZM385.5 225.5V256.5H416.5V225.5H385.5ZM417.5 225.5V256.5H448.5V225.5H417.5ZM449.5 225.5V256.5H480.5V225.5H449.5ZM481.5 225.5V256.5H512.5V225.5H481.5ZM513.5 225.5V256.5H544.5V225.5H513.5ZM545.5 225.5V256.5H576.5V225.5H545.5ZM577.5 225.5V256.5H608.5V225.5H577.5ZM609.5 225.5V256.5H640.5V225.5H609.5ZM641.5 225.5V256.5H672.5V225.5H641.5ZM673.5 225.5V256.5H704.5V225.5H673.5ZM705.5 225.5V256.5H736.5V225.5H705.5ZM737.5 225.5V256.5H768.5V225.5H737.5ZM769.5 225.5V256.5H800.5V225.5H769.5ZM800.5 257.5H769.5V288.5H800.5V257.5ZM800.5 289.5H769.5V320.5H800.5V289.5ZM800.5 321.5H769.5V352.5H800.5V321.5ZM800.5 353.5H769.5V384.5H800.5V353.5ZM800.5 385.5H769.5V416.5H800.5V385.5ZM800.5 417.5H769.5V448.5H800.5V417.5ZM800.5 449.5H769.5V480.5H800.5V449.5ZM800.5 481.5H769.5V512.5H800.5V481.5ZM800.5 513.5H769.5V544.5H800.5V513.5ZM800.5 545.5H769.5V576.5H800.5V545.5ZM800.5 577.5H769.5V608.5H800.5V577.5ZM800.5 609.5H769.5V640.5H800.5V609.5ZM800.5 641.5H769.5V672.5H800.5V641.5ZM800.5 673.5H769.5V704.5H800.5V673.5ZM800.5 705.5H769.5V736.5H800.5V705.5ZM800.5 737.5H769.5V768.5H800.5V737.5ZM800.5 769.5H769.5V800.5H800.5V769.5ZM768.5 800.5V769.5H737.5V800.5H768.5ZM736.5 800.5V769.5H705.5V800.5H736.5ZM704.5 800.5V769.5H673.5V800.5H704.5ZM672.5 800.5V769.5H641.5V800.5H672.5ZM640.5 800.5V769.5H609.5V800.5H640.5ZM608.5 800.5V769.5H577.5V800.5H608.5ZM576.5 800.5V769.5H545.5V800.5H576.5ZM544.5 800.5V769.5H513.5V800.5H544.5ZM512.5 800.5V769.5H481.5V800.5H512.5ZM480.5 800.5V769.5H449.5V800.5H480.5ZM448.5 800.5V769.5H417.5V800.5H448.5ZM416.5 800.5V769.5H385.5V800.5H416.5ZM384.5 800.5V769.5H353.5V800.5H384.5ZM352.5 800.5V769.5H321.5V800.5H352.5ZM320.5 800.5V769.5H289.5V800.5H320.5ZM288.5 800.5V769.5H257.5V800.5H288.5ZM257.5 768.5H288.5V737.5H257.5V768.5ZM257.5 736.5H288.5V705.5H257.5V736.5ZM257.5 704.5H288.5V673.5H257.5V704.5ZM257.5 672.5H288.5V641.5H257.5V672.5ZM257.5 640.5H288.5V609.5H257.5V640.5ZM257.5 608.5H288.5V577.5H257.5V608.5ZM257.5 576.5H288.5V545.5H257.5V576.5ZM257.5 544.5H288.5V513.5H257.5V544.5ZM257.5 512.5H288.5V481.5H257.5V512.5ZM257.5 480.5H288.5V449.5H257.5V480.5ZM257.5 448.5H288.5V417.5H257.5V448.5ZM257.5 416.5H288.5V385.5H257.5V416.5ZM257.5 384.5H288.5V353.5H257.5V384.5ZM257.5 352.5H288.5V321.5H257.5V352.5ZM257.5 320.5H288.5V289.5H257.5V320.5ZM257.5 288.5H288.5V257.5H257.5V288.5ZM289.5 257.5V288.5H320.5V257.5H289.5ZM321.5 257.5V288.5H352.5V257.5H321.5ZM353.5 257.5V288.5H384.5V257.5H353.5ZM385.5 257.5V288.5H416.5V257.5H385.5ZM417.5 257.5V288.5H448.5V257.5H417.5ZM449.5 257.5V288.5H480.5V257.5H449.5ZM481.5 257.5V288.5H512.5V257.5H481.5ZM513.5 257.5V288.5H544.5V257.5H513.5ZM545.5 257.5V288.5H576.5V257.5H545.5ZM577.5 257.5V288.5H608.5V257.5H577.5ZM609.5 257.5V288.5H640.5V257.5H609.5ZM641.5 257.5V288.5H672.5V257.5H641.5ZM673.5 257.5V288.5H704.5V257.5H673.5ZM705.5 257.5V288.5H736.5V257.5H705.5ZM737.5 257.5V288.5H768.5V257.5H737.5ZM768.5 289.5H737.5V320.5H768.5V289.5ZM768.5 321.5H737.5V352.5H768.5V321.5ZM768.5 353.5H737.5V384.5H768.5V353.5ZM768.5 385.5H737.5V416.5H768.5V385.5ZM768.5 417.5H737.5V448.5H768.5V417.5ZM768.5 449.5H737.5V480.5H768.5V449.5ZM768.5 481.5H737.5V512.5H768.5V481.5ZM768.5 513.5H737.5V544.5H768.5V513.5ZM768.5 545.5H737.5V576.5H768.5V545.5ZM768.5 577.5H737.5V608.5H768.5V577.5ZM768.5 609.5H737.5V640.5H768.5V609.5ZM768.5 641.5H737.5V672.5H768.5V641.5ZM768.5 673.5H737.5V704.5H768.5V673.5ZM768.5 705.5H737.5V736.5H768.5V705.5ZM768.5 737.5H737.5V768.5H768.5V737.5ZM736.5 768.5V737.5H705.5V768.5H736.5ZM704.5 768.5V737.5H673.5V768.5H704.5ZM672.5 768.5V737.5H641.5V768.5H672.5ZM640.5 768.5V737.5H609.5V768.5H640.5ZM608.5 768.5V737.5H577.5V768.5H608.5ZM576.5 768.5V737.5H545.5V768.5H576.5ZM544.5 768.5V737.5H513.5V768.5H544.5ZM512.5 768.5V737.5H481.5V768.5H512.5ZM480.5 768.5V737.5H449.5V768.5H480.5ZM448.5 768.5V737.5H417.5V768.5H448.5ZM416.5 768.5V737.5H385.5V768.5H416.5ZM384.5 768.5V737.5H353.5V768.5H384.5ZM352.5 768.5V737.5H321.5V768.5H352.5ZM320.5 768.5V737.5H289.5V768.5H320.5ZM289.5 736.5H320.5V705.5H289.5V736.5ZM289.5 704.5H320.5V673.5H289.5V704.5ZM289.5 672.5H320.5V641.5H289.5V672.5ZM289.5 640.5H320.5V609.5H289.5V640.5ZM289.5 608.5H320.5V577.5H289.5V608.5ZM289.5 576.5H320.5V545.5H289.5V576.5ZM289.5 544.5H320.5V513.5H289.5V544.5ZM289.5 512.5H320.5V481.5H289.5V512.5ZM289.5 480.5H320.5V449.5H289.5V480.5ZM289.5 448.5H320.5V417.5H289.5V448.5ZM289.5 416.5H320.5V385.5H289.5V416.5ZM289.5 384.5H320.5V353.5H289.5V384.5ZM289.5 352.5H320.5V321.5H289.5V352.5ZM289.5 320.5H320.5V289.5H289.5V320.5ZM321.5 289.5V320.5H352.5V289.5H321.5ZM353.5 289.5V320.5H384.5V289.5H353.5ZM385.5 289.5V320.5H416.5V289.5H385.5ZM417.5 289.5V320.5H448.5V289.5H417.5ZM449.5 289.5V320.5H480.5V289.5H449.5ZM481.5 289.5V320.5H512.5V289.5H481.5ZM513.5 289.5V320.5H544.5V289.5H513.5ZM545.5 289.5V320.5H576.5V289.5H545.5ZM577.5 289.5V320.5H608.5V289.5H577.5ZM609.5 289.5V320.5H640.5V289.5H609.5ZM641.5 289.5V320.5H672.5V289.5H641.5ZM673.5 289.5V320.5H704.5V289.5H673.5ZM705.5 289.5V320.5H736.5V289.5H705.5ZM736.5 321.5H705.5V352.5H736.5V321.5ZM736.5 353.5H705.5V384.5H736.5V353.5ZM736.5 385.5H705.5V416.5H736.5V385.5ZM736.5 417.5H705.5V448.5H736.5V417.5ZM736.5 449.5H705.5V480.5H736.5V449.5ZM736.5 481.5H705.5V512.5H736.5V481.5ZM736.5 513.5H705.5V544.5H736.5V513.5ZM736.5 545.5H705.5V576.5H736.5V545.5ZM736.5 577.5H705.5V608.5H736.5V577.5ZM736.5 609.5H705.5V640.5H736.5V609.5ZM736.5 641.5H705.5V672.5H736.5V641.5ZM736.5 673.5H705.5V704.5H736.5V673.5ZM736.5 705.5H705.5V736.5H736.5V705.5ZM704.5 736.5V705.5H673.5V736.5H704.5ZM672.5 736.5V705.5H641.5V736.5H672.5ZM640.5 736.5V705.5H609.5V736.5H640.5ZM608.5 736.5V705.5H577.5V736.5H608.5ZM576.5 736.5V705.5H545.5V736.5H576.5ZM544.5 736.5V705.5H513.5V736.5H544.5ZM512.5 736.5V705.5H481.5V736.5H512.5ZM480.5 736.5V705.5H449.5V736.5H480.5ZM448.5 736.5V705.5H417.5V736.5H448.5ZM416.5 736.5V705.5H385.5V736.5H416.5ZM384.5 736.5V705.5H353.5V736.5H384.5ZM352.5 736.5V705.5H321.5V736.5H352.5ZM321.5 704.5H352.5V673.5H321.5V704.5ZM321.5 672.5H352.5V641.5H321.5V672.5ZM321.5 640.5H352.5V609.5H321.5V640.5ZM321.5 608.5H352.5V577.5H321.5V608.5ZM321.5 576.5H352.5V545.5H321.5V576.5ZM321.5 544.5H352.5V513.5H321.5V544.5ZM321.5 512.5H352.5V481.5H321.5V512.5ZM321.5 480.5H352.5V449.5H321.5V480.5ZM321.5 448.5H352.5V417.5H321.5V448.5ZM321.5 416.5H352.5V385.5H321.5V416.5ZM321.5 384.5H352.5V353.5H321.5V384.5ZM321.5 352.5H352.5V321.5H321.5V352.5ZM353.5 321.5V352.5H384.5V321.5H353.5ZM385.5 321.5V352.5H416.5V321.5H385.5ZM417.5 321.5V352.5H448.5V321.5H417.5ZM449.5 321.5V352.5H480.5V321.5H449.5ZM481.5 321.5V352.5H512.5V321.5H481.5ZM513.5 321.5V352.5H544.5V321.5H513.5ZM545.5 321.5V352.5H576.5V321.5H545.5ZM577.5 321.5V352.5H608.5V321.5H577.5ZM609.5 321.5V352.5H640.5V321.5H609.5ZM641.5 321.5V352.5H672.5V321.5H641.5ZM673.5 321.5V352.5H704.5V321.5H673.5ZM704.5 353.5H673.5V384.5H704.5V353.5ZM704.5 385.5H673.5V416.5H704.5V385.5ZM704.5 417.5H673.5V448.5H704.5V417.5ZM704.5 449.5H673.5V480.5H704.5V449.5ZM704.5 481.5H673.5V512.5H704.5V481.5ZM704.5 513.5H673.5V544.5H704.5V513.5ZM704.5 545.5H673.5V576.5H704.5V545.5ZM704.5 577.5H673.5V608.5H704.5V577.5ZM704.5 609.5H673.5V640.5H704.5V609.5ZM704.5 641.5H673.5V672.5H704.5V641.5ZM704.5 673.5H673.5V704.5H704.5V673.5ZM672.5 704.5V673.5H641.5V704.5H672.5ZM640.5 704.5V673.5H609.5V704.5H640.5ZM608.5 704.5V673.5H577.5V704.5H608.5ZM576.5 704.5V673.5H545.5V704.5H576.5ZM544.5 704.5V673.5H513.5V704.5H544.5ZM512.5 704.5V673.5H481.5V704.5H512.5ZM480.5 704.5V673.5H449.5V704.5H480.5ZM448.5 704.5V673.5H417.5V704.5H448.5ZM416.5 704.5V673.5H385.5V704.5H416.5ZM384.5 704.5V673.5H353.5V704.5H384.5ZM353.5 672.5H384.5V641.5H353.5V672.5ZM353.5 640.5H384.5V609.5H353.5V640.5ZM353.5 608.5H384.5V577.5H353.5V608.5ZM353.5 576.5H384.5V545.5H353.5V576.5ZM353.5 544.5H384.5V513.5H353.5V544.5ZM353.5 512.5H384.5V481.5H353.5V512.5ZM353.5 480.5H384.5V449.5H353.5V480.5ZM353.5 448.5H384.5V417.5H353.5V448.5ZM353.5 416.5H384.5V385.5H353.5V416.5ZM353.5 384.5H384.5V353.5H353.5V384.5ZM385.5 353.5V384.5H416.5V353.5H385.5ZM417.5 353.5V384.5H448.5V353.5H417.5ZM449.5 353.5V384.5H480.5V353.5H449.5ZM481.5 353.5V384.5H512.5V353.5H481.5ZM513.5 353.5V384.5H544.5V353.5H513.5ZM545.5 353.5V384.5H576.5V353.5H545.5ZM577.5 353.5V384.5H608.5V353.5H577.5ZM609.5 353.5V384.5H640.5V353.5H609.5ZM641.5 353.5V384.5H672.5V353.5H641.5ZM672.5 385.5H641.5V416.5H672.5V385.5ZM672.5 417.5H641.5V448.5H672.5V417.5ZM672.5 449.5H641.5V480.5H672.5V449.5ZM672.5 481.5H641.5V512.5H672.5V481.5ZM672.5 513.5H641.5V544.5H672.5V513.5ZM672.5 545.5H641.5V576.5H672.5V545.5ZM672.5 577.5H641.5V608.5H672.5V577.5ZM672.5 609.5H641.5V640.5H672.5V609.5ZM672.5 641.5H641.5V672.5H672.5V641.5ZM640.5 672.5V641.5H609.5V672.5H640.5ZM608.5 672.5V641.5H577.5V672.5H608.5ZM576.5 672.5V641.5H545.5V672.5H576.5ZM544.5 672.5V641.5H513.5V672.5H544.5ZM512.5 672.5V641.5H481.5V672.5H512.5ZM480.5 672.5V641.5H449.5V672.5H480.5ZM448.5 672.5V641.5H417.5V672.5H448.5ZM416.5 672.5V641.5H385.5V672.5H416.5ZM385.5 640.5H416.5V609.5H385.5V640.5ZM385.5 608.5H416.5V577.5H385.5V608.5ZM385.5 576.5H416.5V545.5H385.5V576.5ZM385.5 544.5H416.5V513.5H385.5V544.5ZM385.5 512.5H416.5V481.5H385.5V512.5ZM385.5 480.5H416.5V449.5H385.5V480.5ZM385.5 448.5H416.5V417.5H385.5V448.5ZM385.5 416.5H416.5V385.5H385.5V416.5ZM417.5 385.5V416.5H448.5V385.5H417.5ZM449.5 385.5V416.5H480.5V385.5H449.5ZM481.5 385.5V416.5H512.5V385.5H481.5ZM513.5 385.5V416.5H544.5V385.5H513.5ZM545.5 385.5V416.5H576.5V385.5H545.5ZM577.5 385.5V416.5H608.5V385.5H577.5ZM609.5 385.5V416.5H640.5V385.5H609.5ZM640.5 417.5H609.5V448.5H640.5V417.5ZM640.5 449.5H609.5V480.5H640.5V449.5ZM640.5 481.5H609.5V512.5H640.5V481.5ZM640.5 513.5H609.5V544.5H640.5V513.5ZM640.5 545.5H609.5V576.5H640.5V545.5ZM640.5 577.5H609.5V608.5H640.5V577.5ZM640.5 609.5H609.5V640.5H640.5V609.5ZM608.5 640.5V609.5H577.5V640.5H608.5ZM576.5 640.5V609.5H545.5V640.5H576.5ZM544.5 640.5V609.5H513.5V640.5H544.5ZM512.5 640.5V609.5H481.5V640.5H512.5ZM480.5 640.5V609.5H449.5V640.5H480.5ZM448.5 640.5V609.5H417.5V640.5H448.5ZM417.5 608.5H448.5V577.5H417.5V608.5ZM417.5 576.5H448.5V545.5H417.5V576.5ZM417.5 544.5H448.5V513.5H417.5V544.5ZM417.5 512.5H448.5V481.5H417.5V512.5ZM417.5 480.5H448.5V449.5H417.5V480.5ZM417.5 448.5H448.5V417.5H417.5V448.5ZM449.5 417.5V448.5H480.5V417.5H449.5ZM481.5 417.5V448.5H512.5V417.5H481.5ZM513.5 417.5V448.5H544.5V417.5H513.5ZM545.5 417.5V448.5H576.5V417.5H545.5ZM577.5 417.5V448.5H608.5V417.5H577.5ZM608.5 449.5H577.5V480.5H608.5V449.5ZM608.5 481.5H577.5V512.5H608.5V481.5ZM608.5 513.5H577.5V544.5H608.5V513.5ZM608.5 545.5H577.5V576.5H608.5V545.5ZM608.5 577.5H577.5V608.5H608.5V577.5ZM576.5 608.5V577.5H545.5V608.5H576.5ZM544.5 608.5V577.5H513.5V608.5H544.5ZM512.5 608.5V577.5H481.5V608.5H512.5ZM480.5 608.5V577.5H449.5V608.5H480.5ZM449.5 576.5H480.5V545.5H449.5V576.5ZM449.5 544.5H480.5V513.5H449.5V544.5ZM449.5 512.5H480.5V481.5H449.5V512.5ZM449.5 480.5H480.5V449.5H449.5V480.5ZM481.5 449.5V480.5H512.5V449.5H481.5ZM513.5 449.5V480.5H544.5V449.5H513.5ZM545.5 449.5V480.5H576.5V449.5H545.5ZM576.5 481.5H545.5V512.5H576.5V481.5ZM576.5 513.5H545.5V544.5H576.5V513.5ZM576.5 545.5H545.5V576.5H576.5V545.5ZM544.5 576.5V545.5H513.5V576.5H544.5ZM512.5 576.5V545.5H481.5V576.5H512.5ZM481.5 544.5H512.5V513.5H481.5V544.5ZM481.5 512.5H512.5V481.5H481.5V512.5ZM513.5 481.5V512.5H544.5V481.5H513.5ZM544.5 513.5H513.5V544.5H544.5V513.5Z" fill="#FAFAFA"/>
</svg>
