<svg width="currentWidth" height="currentHeight" viewBox="0 0 739 109" fill="none" xmlns="http://www.w3.org/2000/svg">
<g clip-path="url(#clip0_2009_17554)">
<path d="M82.8859 6.56624C83.4401 9.18527 84.156 12.8902 85.0413 17.6811C85.9189 22.4721 86.858 27.758 87.8433 33.5231C88.8287 39.2722 89.8294 45.173 90.8609 51.2175C91.8847 57.27 92.8162 62.8115 93.663 67.8579C96.8191 62.8115 100.268 57.3978 104.009 51.6008C107.742 45.7878 111.43 40.0707 115.063 34.4493C118.712 28.828 122.176 23.582 125.44 18.7032C128.704 13.8085 131.506 9.76018 133.846 6.56624H153.152C152.49 13.2575 151.628 20.7633 150.566 29.0835C149.496 37.4117 148.287 46.0274 146.933 54.9225C145.578 63.8256 144.146 72.7766 142.652 81.7835C141.151 90.7904 139.666 99.2703 138.188 107.207H116.88C118.851 97.33 120.929 86.6623 123.131 75.204C125.324 63.7298 127.357 52.1278 129.227 40.3901C126.779 44.3745 124.062 48.8141 121.068 53.7088C118.088 58.5875 115.102 63.5142 112.107 68.4967C109.128 73.4793 106.241 78.2542 103.455 82.8056C100.66 87.3649 98.2355 91.2376 96.1879 94.4315H80.207C79.7297 91.517 79.1678 87.836 78.5135 83.3805C77.8745 78.9329 77.1586 74.2139 76.358 69.2313C75.5575 64.2488 74.7338 59.2183 73.8947 54.124C73.071 49.0376 72.2781 44.4623 71.5238 40.3901C67.8903 52.1278 64.5956 63.7298 61.6396 75.204C58.699 86.6623 55.9817 97.33 53.4798 107.207H32.326C34.4814 99.2703 36.8369 90.7904 39.408 81.7835C41.9714 72.7766 44.6272 63.8016 47.3831 54.8586C50.1312 45.8996 52.864 37.252 55.5737 28.9238C58.2833 20.6036 60.8467 13.1458 63.2716 6.56624H82.8859Z" fill="#89C5F5"/>
<path d="M222.04 107.207C221.856 103.438 221.64 99.7494 221.394 96.1243C221.163 92.4832 220.916 88.8661 220.655 85.2649H184.228C182.358 88.8661 180.395 92.4832 178.347 96.1243C176.292 99.7494 174.329 103.438 172.466 107.207H149.649C155.723 96.3718 161.396 86.3508 166.677 77.1523C171.95 67.9538 177.031 59.2902 181.919 51.1536C186.822 43.0251 191.603 35.3037 196.268 27.9976C200.948 20.6755 205.705 13.529 210.555 6.56624H230.015C231.509 13.529 232.941 21.2504 234.295 29.7223C235.65 38.2022 236.897 46.8658 238.052 55.721C239.222 64.5841 240.3 73.4393 241.285 82.2945C242.27 91.1577 243.179 99.462 244.026 107.207H222.04ZM215.605 28.6364C211.679 35.136 207.83 41.5718 204.058 47.9597C200.278 54.3476 196.614 60.8872 193.065 67.5705H219.238C218.761 61.6537 218.268 55.3616 217.76 48.6943C217.245 42.011 216.529 35.3277 215.605 28.6364Z" fill="#89C5F5"/>
<path d="M333.492 102.864C329.65 104.804 325.401 106.345 320.744 107.495C316.079 108.661 310.382 109.251 303.654 109.251C297.866 109.251 292.569 108.261 287.766 106.281C282.962 104.285 278.852 101.45 275.449 97.7851C272.039 94.1041 269.399 89.6246 267.536 84.3387C265.665 79.0607 264.734 73.1279 264.734 66.5484C264.734 58.9948 266.012 51.489 268.583 44.0312C271.146 36.5813 274.926 29.9299 279.914 24.069C284.918 18.2161 291.037 13.4492 298.266 9.76018C305.51 6.07917 313.846 4.23466 323.269 4.23466C327.741 4.23466 332.144 4.76965 336.478 5.83163C340.828 6.90161 345.385 8.79401 350.15 11.5168L342.298 29.0835C338.372 26.9595 334.877 25.5063 331.798 24.7398C328.719 23.9572 325.401 23.558 321.852 23.558C316.533 23.558 311.753 24.6759 307.503 26.9116C303.254 29.1314 299.605 32.1497 296.572 35.9824C293.555 39.7992 291.245 44.2228 289.644 49.2692C288.058 54.2997 287.273 59.6176 287.273 65.2389C287.273 73.7587 289.067 79.955 292.662 83.8276C296.249 87.7083 301.414 89.6406 308.15 89.6406C312.622 89.6406 316.749 89.1615 320.528 88.2033C324.3 87.2292 327.834 85.9596 331.121 84.4025L333.492 102.864Z" fill="#89C5F5"/>
<path d="M374.505 90.3752C376.66 90.3752 378.8 90.2075 380.94 89.8642C383.095 89.5288 385.012 88.922 386.698 88.0436C388.376 87.1733 389.754 85.9356 390.824 84.3387C391.886 82.7417 392.425 80.6896 392.425 78.1744C392.425 76.242 391.91 74.5652 390.886 73.1599C389.854 71.7545 388.553 70.477 386.975 69.3271C385.389 68.1614 383.619 67.0914 381.648 66.1332C379.693 65.1591 377.738 64.0811 375.767 62.9073C373.242 61.3583 370.856 59.7134 368.623 57.9887C366.383 56.248 364.467 54.2837 362.865 52.1118C361.28 49.924 360.033 47.4966 359.109 44.8296C358.185 42.1707 357.723 39.0965 357.723 35.5991C357.723 31.1516 358.531 27.0234 360.156 23.2067C361.795 19.3739 364.22 16.0522 367.423 13.2416C370.64 10.4309 374.674 8.22709 379.524 6.63012C384.389 5.03315 390.093 4.23466 396.644 4.23466C399.615 4.23466 402.502 4.50615 405.296 5.03315C408.106 5.56814 410.723 6.23088 413.148 7.01339C415.565 7.77994 417.782 8.67424 419.799 9.6963C421.808 10.7024 423.51 11.6925 424.911 12.6667L415.827 29.371C413.487 27.5185 410.631 25.9694 407.267 24.7078C403.895 23.4542 400.254 22.8234 396.336 22.8234C394.196 22.8234 392.148 23.031 390.178 23.4302C388.222 23.8135 386.498 24.4683 385.005 25.3785C383.503 26.2968 382.31 27.4786 381.433 28.9238C380.547 30.3771 380.109 32.1657 380.109 34.2896C380.109 36.23 380.455 37.8589 381.156 39.1764C381.848 40.4779 382.757 41.6197 383.865 42.5939C384.989 43.5521 386.306 44.4304 387.807 45.2129C389.3 45.9795 390.893 46.8019 392.579 47.6722C395.474 49.2053 398.26 50.8502 400.955 52.5909C403.664 54.3396 406.043 56.3518 408.098 58.6275C410.146 60.9111 411.778 63.5062 412.994 66.4207C414.226 69.3192 414.842 72.7447 414.842 76.7052C414.842 82.2227 413.856 87.0136 411.886 91.0779C409.93 95.1502 407.182 98.5437 403.634 101.267C400.077 103.973 395.851 105.978 390.947 107.271C386.059 108.589 380.632 109.251 374.659 109.251C370.733 109.251 367.068 108.908 363.666 108.229C360.256 107.543 357.177 106.752 354.428 105.834C351.673 104.924 349.294 103.933 347.285 102.864C345.268 101.802 343.659 100.835 342.45 99.957L351.688 82.6778C352.812 83.4444 354.167 84.2668 355.752 85.1372C357.331 86.0155 359.124 86.8459 361.141 87.6284C363.15 88.395 365.275 89.0497 367.515 89.5767C369.747 90.1117 372.08 90.3752 374.505 90.3752Z" fill="#89C5F5"/>
<path d="M501.087 102.864C497.245 104.804 492.996 106.345 488.339 107.495C483.674 108.661 477.977 109.251 471.249 109.251C465.461 109.251 460.164 108.261 455.361 106.281C450.557 104.285 446.447 101.45 443.044 97.7851C439.634 94.1041 436.994 89.6246 435.131 84.3387C433.26 79.0607 432.329 73.1279 432.329 66.5484C432.329 58.9948 433.607 51.489 436.178 44.0312C438.741 36.5813 442.521 29.9299 447.509 24.069C452.513 18.2161 458.632 13.4492 465.861 9.76018C473.105 6.07917 481.441 4.23466 490.864 4.23466C495.336 4.23466 499.739 4.76965 504.073 5.83163C508.423 6.90161 512.98 8.79401 517.745 11.5168L509.893 29.0835C505.967 26.9595 502.472 25.5063 499.393 24.7398C496.314 23.9572 492.996 23.558 489.447 23.558C484.128 23.558 479.348 24.6759 475.098 26.9116C470.849 29.1314 467.2 32.1497 464.167 35.9824C461.15 39.7992 458.84 44.2228 457.239 49.2692C455.653 54.2997 454.868 59.6176 454.868 65.2389C454.868 73.7587 456.662 79.955 460.257 83.8276C463.844 87.7083 469.009 89.6406 475.745 89.6406C480.217 89.6406 484.344 89.1615 488.123 88.2033C491.895 87.2292 495.429 85.9596 498.716 84.4025L501.087 102.864Z" fill="#FFA366"/>
<path d="M574.439 23.6858C570.143 23.6858 566.156 24.8595 562.461 27.1991C558.781 29.5227 555.571 32.6208 552.823 36.4935C550.067 40.3501 547.927 44.7977 546.387 49.8441C544.848 54.8746 544.078 60.0488 544.078 65.3667C544.078 72.6329 545.541 78.5177 548.481 83.0292C551.414 87.5246 556.195 89.7684 562.83 89.7684C567.118 89.7684 571.098 88.6106 574.777 86.287C578.472 83.9714 581.69 80.8732 584.446 76.9926C587.217 73.12 589.373 68.6884 590.912 63.7058C592.452 58.7233 593.222 53.5172 593.222 48.0875C593.222 40.8292 591.744 34.9524 588.788 30.4569C585.847 25.9455 581.067 23.6858 574.439 23.6858ZM560.582 109.251C554.894 109.251 549.667 108.277 544.909 106.345C540.144 104.413 536.041 101.634 532.593 98.0087C529.144 94.3676 526.45 89.944 524.525 84.7219C522.616 79.4839 521.662 73.5671 521.662 66.9636C521.662 59.4259 522.924 51.9362 525.449 44.4783C527.974 37.0284 531.584 30.3212 536.288 24.3565C541.007 18.3998 546.772 13.553 553.593 9.82406C560.405 6.10312 568.103 4.23466 576.686 4.23466C582.391 4.23466 587.617 5.20882 592.359 7.14115C597.117 9.08147 601.227 11.8682 604.676 15.5093C608.14 19.1344 610.834 23.558 612.743 28.7961C614.653 34.0182 615.607 39.911 615.607 46.4905C615.607 54.0521 614.36 61.5898 611.881 69.1036C609.418 76.6013 605.823 83.3326 601.104 89.2893C596.401 95.23 590.643 100.045 583.83 103.726C577.01 107.407 569.266 109.251 560.582 109.251Z" fill="#AE9DF5"/>
<path d="M686.481 107.207C682.555 95.773 678.198 84.3546 673.395 72.9363C668.591 61.502 663.388 50.7065 657.784 40.5498L642.388 107.207H620.957L644.204 6.56624H660.863C662.995 9.95181 665.297 13.9442 667.76 18.5435C670.239 23.1428 672.787 28.1094 675.396 33.4273C678.021 38.7532 680.639 44.3026 683.248 50.0677C685.873 55.8168 688.344 61.502 690.669 67.1233L704.556 6.56624H726.233L702.863 107.207H686.481Z" fill="#F83B60"/>
</g>
<defs>
<clipPath id="clip0_2009_17554">
<rect width="739" height="109" fill="white"/>
</clipPath>
</defs>
</svg>
